<?xml version="1.0" standalone="no"?>
<!DOCTYPE svg PUBLIC "-//W3C//DTD SVG 1.1//EN" "http://www.w3.org/Graphics/SVG/1.1/DTD/svg11.dtd" >
<svg>
<metadata>
Created by FontForge 20090914 at Wed May 18 11:10:04 2016
 By www-data
Copyright(c) Founder Corporation.2002
</metadata>
<defs>
<font id="FZYiHei-M20S" horiz-adv-x="146" >
  <font-face 
    font-family="FZYiHei-M20S"
    font-weight="400"
    font-stretch="normal"
    units-per-em="256"
    panose-1="3 0 5 9 0 0 0 0 0 0"
    ascent="204"
    descent="-52"
    x-height="136.001"
    cap-height="184.001"
    bbox="-8 -54 250.999 217.57"
    underline-thickness="12"
    underline-position="-53"
    unicode-range="U+001D-U+7801"
  />
<missing-glyph horiz-adv-x="256" 
 />
    <glyph glyph-name=".notdef" horiz-adv-x="256" 
 />
    <glyph glyph-name="uni001D" horiz-adv-x="68" 
 />
    <glyph glyph-name="uni001D" unicode=" " horiz-adv-x="68" 
 />
    <glyph glyph-name="uni001D" horiz-adv-x="68" 
 />
    <glyph glyph-name="exclam" unicode="!" horiz-adv-x="85" 
d="M24 69v99c0.666992 10.667 7 16.334 19 17.001c11.333 -0.666992 17.333 -6.33398 18 -17.001v-99c-0.666992 -10.667 -6.66699 -16.334 -18 -17.001c-12 0.666992 -18.333 6.33398 -19 17.001zM43 -1c-12.667 0.666992 -19.332 6.66699 -19.999 18
c1.33301 12 8 18.667 20 20c12 -1.33301 18.667 -8 20 -20c-0.666992 -11.333 -7.33398 -17.333 -20.001 -18z" />
    <glyph glyph-name="quotedbl" unicode="&#x22;" horiz-adv-x="113" 
d="M65 126v44c0.666992 9.33301 5.66699 14.333 15 15c10 0 15 -5 15 -15v-44c0 -10 -5 -15 -15 -15c-9.33301 0.666992 -14.333 5.66699 -15 15zM18 126v44c0.666992 9.33301 6 14.333 16 15c9.33301 -0.666992 14.333 -5.66699 15 -15v-44
c-0.666992 -9.33301 -5.66699 -14.333 -15 -15c-10 0.666992 -15.333 5.66699 -16 15z" />
    <glyph glyph-name="numbersign" unicode="#" horiz-adv-x="153" 
d="M38 77l4.00195 29h-22c-7.33301 0.666992 -11.333 4.66699 -12 12c0.666992 7.33301 4.66699 11.333 12 12h26l5 42c0.666992 8 5 12 13 12c7.33301 -0.666992 11.333 -4 12 -10v-4c-0.666992 -0.666992 -1 -1.66699 -1 -3l-5 -37h25l5 42
c1.33301 8.66699 5.66602 12.667 12.999 12s11.333 -4 12 -10v-4c-0.666992 -0.666992 -1 -1.66699 -1 -3l-5 -37h22c8 0 12.333 -4 13 -12c-0.666992 -8 -5 -12 -13 -12h-25l-4 -29h22c7.33301 -0.666992 11.333 -5 12 -13c-0.666992 -7.33301 -4.66699 -11.333 -12 -12
h-26l-6 -41c-0.666992 -7.33301 -4.66699 -11 -12 -11s-11.333 3 -12 9v6l5 37h-24l-6 -41c-0.666992 -7.33301 -5 -11 -13 -11c-6.66699 0 -10.334 3 -11.001 9v6l5 37h-22c-7.33301 0.666992 -11.333 4.66699 -12 12c0.666992 8 4.66699 12.333 12 13h26zM67.002 106
l-4 -29h24l4 29h-24z" />
    <glyph glyph-name="dollar" unicode="$" horiz-adv-x="137" 
d="M74 72v-36.999c11.333 3.33301 17 10.333 17 21c0 7.33301 -5.66699 12.666 -17 15.999zM61 118.001v29.001c-9.33301 -2.66699 -14 -7.66699 -14 -15c0 -6.66699 4.66699 -11.334 14 -14.001zM61 34.002l-0.000976562 43.002c-38 8 -56.333 24.667 -55 50
c2 33.333 20.333 52.666 55 57.999v8c-0.666992 8.66699 1.66602 12.667 6.99902 12c4.66699 0.666992 6.66699 -3.33301 6 -12v-8c29.333 -2.66699 44.333 -11 45 -25c-0.666992 -12 -6.33398 -18.333 -17.001 -19c-3.33301 0 -8 1 -14 3s-10.667 3.33301 -14 4v-34
c0.666992 0 2.33398 -0.333008 5.00098 -1c36.667 -9.33301 54.667 -28.333 54 -57c-2 -34 -21.667 -52.667 -59 -56v-1v-7c0.666992 -8.66699 -1.33301 -13 -6 -13c-5.33301 0 -7.66602 4.33301 -6.99902 13v7c-36.667 1.33301 -55.334 10.333 -56.001 27
c0.666992 11.333 6.33398 17.333 17.001 18c4 0 10.333 -1.66699 19 -5c8.66699 -2.66699 15.334 -4.33398 20.001 -5.00098z" />
    <glyph glyph-name="percent" unicode="%" horiz-adv-x="184" 
d="M47 129c8.66699 0.666992 13.334 5.66699 14.001 15c-0.666992 9.33301 -5.33398 14.333 -14.001 15c-8 -0.666992 -12.333 -5.66699 -13 -15c0.666992 -9.33301 5 -14.333 13 -15zM38 19l85 160.002c2.66699 6 6.66699 8.66699 12 8
c8.66699 -0.666992 13.667 -5.33398 15 -14.001c0 -2.66699 -0.666992 -5.33398 -2 -8.00098l-86 -161l-1 -1c-3.33301 -4.66699 -7 -6.66699 -11 -6c-8 1.33301 -12.667 5.33301 -14 12c0 4.66699 0.666992 8 2 10zM47 103.002c-23.333 2 -36.333 15.667 -39 41
c2.66699 25.333 15.667 39 39 41c24.667 -2 38 -15.667 40 -41c-2 -25.333 -15.333 -39 -40 -41zM137 -0.998047c-24 1.33301 -37 14.333 -39 39c2.66699 25.333 15.667 39.333 39 42c24 -2 37.333 -16 40 -42c-2 -24.667 -15.333 -37.667 -40 -39zM137 23.002
c8.66699 0.666992 13.334 5.66699 14.001 15c-0.666992 10 -5.33398 15.333 -14.001 16c-8 -0.666992 -12.333 -6 -13 -16c0.666992 -9.33301 5 -14.333 13 -15z" />
    <glyph glyph-name="ampersand" unicode="&#x26;" horiz-adv-x="180" 
d="M102 46l-37.001 41c-15.333 -10 -22.666 -20.333 -21.999 -31c0.666992 -16 9.66699 -24.333 27 -25c11.333 -0.666992 22 4.33301 32 15zM100.999 100l26.998 -29l10 11c6.66699 8.66699 13.334 12.667 20.001 12c8.66699 -0.666992 13.334 -6 14.001 -16
c0 -5.33301 -4.66699 -13.333 -14 -24l-7 -7l18 -20c3.33301 -4 5 -8.33301 5 -13c-0.666992 -9.33301 -6.66699 -14.333 -18 -15c-4.66699 0 -9 1.33301 -13 4l-18 18c-17.333 -14.667 -36 -22 -56 -22c-40.667 1.33301 -61.667 19 -63 53c0 22.667 13 41.334 39 56.001
c-11.333 11.333 -17 22.666 -17 33.999c1.33301 26.667 19.333 41 54 43c32.667 -2.66699 50 -16 52 -40c-0.666992 -18 -11.667 -33 -33 -45zM98.9971 141c0 9.33301 -5.66699 14.3301 -17 14.9971c-10 -1.33301 -15.333 -5.66602 -16 -12.999
c-0.666992 -5.33301 4 -12.666 14 -21.999c12.667 6.66699 19 13.334 19 20.001z" />
    <glyph glyph-name="quotesingle" unicode="'" horiz-adv-x="61" 
d="M15 126v44c0.666992 9.33301 6 14.333 16 15c9.33301 -0.666992 14.333 -5.66699 15 -15v-44c-0.666992 -9.33301 -5.66699 -14.333 -15 -15c-10 0.666992 -15.333 5.66699 -16 15z" />
    <glyph glyph-name="parenleft" unicode="(" horiz-adv-x="61" 
d="M44 185c10 -0.666992 15.332 -5.66504 15.999 -14.998c0 -2.66699 -1.33301 -8 -4 -16c-9.33301 -26.667 -14 -53.667 -14 -81c0 -26.667 4 -51.334 12 -74.001l1 -2c3.33301 -10 5 -16 5 -18c0 -10.667 -5.33301 -16 -16 -16c-5.33301 0 -9.66602 3 -12.999 9
c-12 23.333 -19 57 -21 101c3.33301 55.333 12 91.666 26 108.999c2 2 4.66699 3 8 3z" />
    <glyph glyph-name="parenright" unicode=")" horiz-adv-x="61" 
d="M18 -37c-10.667 0.666992 -16.334 5.33398 -17.001 14.001c0 2 1.33301 6.66699 4 14c0.666992 1.33301 1 2.33301 1 3c8.66699 23.333 13 49.666 13 78.999c0 28.667 -3.66699 54 -11 76c-3.33301 7.33301 -5.66602 14 -6.99902 20
c0.666992 10 6.33398 15.333 17.001 16c5.33301 0 9.66602 -3 12.999 -9c12 -24 19 -58.333 21 -103c-3.33301 -54 -12 -89.667 -26 -107c-2 -2 -4.66699 -3 -8 -3z" />
    <glyph glyph-name="asterisk" unicode="*" horiz-adv-x="99" 
d="M50 184c8 -0.666992 12.333 -4.66406 13 -11.9971c0 -1.33301 -0.333008 -3.66602 -1 -6.99902c-0.666992 -4 -1 -7 -1 -9c0.666992 0.666992 2 1.66699 4 3c6 4.66699 10.667 7 14 7c8 -0.666992 12.333 -5.33398 13 -14.001c0 -5.33301 -4.66699 -10 -14 -14
c-2.66699 -0.666992 -4.66699 -1.33398 -6 -2.00098c1.33301 -0.666992 3.33301 -1.33398 6 -2.00098c10 -4 14.667 -8.66699 14 -14c-0.666992 -9.33301 -5 -14.333 -13 -15c-2.66699 0 -7 2.33301 -13 7c-2 2 -3.66699 3.33301 -5 4c0 -2 0.333008 -5.33301 1 -10
c0.666992 -2.66699 1 -4.66699 1 -6c0 -8 -4.33301 -12 -13 -12s-13 4 -13 12c0 4.66699 0.666992 10 2 16c-2 -1.33301 -4.33301 -3 -7 -5c-5.33301 -4 -9.33301 -6 -12 -6c-8 0.666992 -12.333 5.66699 -13 15c0 5.33301 5 9.66602 15 12.999l6 3l-6 3
c-10.667 3.33301 -15.667 7.66602 -15 12.999c0.666992 8.66699 5 13.334 13 14.001c2.66699 0 7 -2 13 -6c2.66699 -2 4.66699 -3.33301 6 -4c-1.33301 6.66699 -2 12 -2 16c0.666992 7.33301 5 11.333 13 12z" />
    <glyph glyph-name="plus" unicode="+" horiz-adv-x="153" 
d="M61 80v37c0.666992 10 6 15.333 16 16c9.33301 -0.666992 14.333 -6 15 -16v-37h37c10 -0.666992 15.333 -5.66699 16 -15c-0.666992 -10 -6 -15.333 -16 -16h-37v-37c0 -8.66699 -5 -13 -15 -13s-15.333 4.33301 -16 13v37h-37c-9.33301 0.666992 -14.333 6 -15 16
c0.666992 9.33301 5.66699 14.333 15 15h37z" />
    <glyph glyph-name="comma" unicode="," horiz-adv-x="68" 
d="M51 13l-22 -36.999c-3.33301 -4.66699 -8 -7.33398 -14 -8.00098c-10 0.666992 -15.333 6.33398 -16 17.001c0 1.33301 0.333008 3.66602 1 6.99902c0.666992 1.33301 1 2.33301 1 3l21 36c3.33301 5.33301 8.33301 8.33301 15 9c10 -1.33301 15.667 -7 17 -17
c0 -2 -0.666992 -4.33301 -2 -7c-0.666992 -1.33301 -1 -2.33301 -1 -3z" />
    <glyph glyph-name="hyphen" unicode="-" horiz-adv-x="153" 
d="M24 80h105c10 -0.666992 15.333 -5.66699 16 -15c-0.666992 -10 -6 -15.333 -16 -16h-105c-9.33301 0.666992 -14.333 6 -15 16c0.666992 9.33301 5.66699 14.333 15 15z" />
    <glyph glyph-name="period" unicode="." horiz-adv-x="68" 
d="M14 17c1.33301 12 8.00195 18.667 20.002 20c12 -1.33301 18.667 -8 20 -20c-0.666992 -11.333 -7.33398 -17.333 -20.001 -18c-12.667 0.666992 -19.334 6.66699 -20.001 18z" />
    <glyph glyph-name="slash" unicode="/" horiz-adv-x="104" 
d="M4 18l69 158.002c2 6 6.66699 9 14 9c9.33301 -0.666992 14.333 -5.33398 15 -14.001l-1 -2c0 -2 -0.333008 -3.66699 -1 -5l-68 -158c-2.66699 -4.66699 -7.66699 -7 -15 -7c-9.33301 0.666992 -14.333 4.66699 -15 12c0 1.33301 0.666992 3.66602 2 6.99902z" />
    <glyph glyph-name="zero" unicode="0" 
d="M73 32c18.667 0 27.999 19.667 27.999 59c0.666992 40 -8.66602 60 -27.999 60c-18.667 0 -27.667 -20 -27 -60c0 -39.333 9 -59 27 -59zM72.999 -1c-42.667 0.666992 -65 31.334 -67 92.001c2.66699 61.333 25 92.666 67 93.999c43.333 -1.33301 66 -32.666 68 -93.999
c-2 -60.667 -24.667 -91.334 -68 -92.001z" />
    <glyph glyph-name="one" unicode="1" horiz-adv-x="94" 
d="M39 18l-0.000976562 128.999h-15c-11.333 0.666992 -17.333 6.66699 -18 18c0.666992 10.667 6.66699 16.334 18 17.001h36c10.667 -0.666992 16.334 -6.66699 17.001 -18v-146c-0.666992 -12 -7 -18 -19 -18s-18.333 6 -19 18z" />
    <glyph glyph-name="two" unicode="2" 
d="M69 34l46.002 0.000976562c13.333 0 20 -5.66699 20 -17c0 -10.667 -6 -16.334 -18 -17.001h-86c-12.667 0 -19 5.66699 -19 17c0 4 1.66699 8.33301 5 13c3.33301 4 8.66602 10 15.999 18c22 24 38 43.333 48 58c6 8.66699 9 16.667 9 24
c-1.33301 12 -7.33301 18.667 -18 20c-10.667 0 -18.334 -7.33301 -23.001 -22c-4 -12.667 -9.66699 -19 -17 -19c-12 0.666992 -18.333 6.66699 -19 18c4 34.667 24 54 60 58c36 -2 55 -19.667 57 -53c0 -18 -15 -44.333 -45 -79z" />
    <glyph glyph-name="three" unicode="3" 
d="M69 185c32.667 -2 50.998 -17.668 54.998 -47.001c0 -16.667 -7 -29.667 -21 -39c20 -10 30.333 -25 31 -45c-3.33301 -34 -24.666 -52.333 -63.999 -55c-36 2 -56.667 17.333 -62 46c1.33301 10 8 15.667 20 17c4.66699 0 9.66699 -4 15 -12
c7.33301 -12 16.333 -18 27 -18c14.667 1.33301 22.667 9.33301 24 24c0 12.667 -7.66699 20 -23 22c-13.333 2.66699 -20 8.66699 -20 18c0 8.66699 6 14.667 18 18c12 2.66699 18 9 18 19c-0.666992 10.667 -6.66699 16.334 -18 17.001c-9.33301 0 -17 -4.66699 -23 -14
c-5.33301 -7.33301 -10.666 -11 -15.999 -11c-10 0.666992 -15.333 7 -16 19c4.66699 24 23 37.667 55 41z" />
    <glyph glyph-name="four" unicode="4" 
d="M84 40l-62 0.00195312c-10.667 0.666992 -16.667 5.66699 -18 15c0 4 1.33301 8 4 12l57 103c5.33301 10.667 14 15.667 26 15c19.333 -1.33301 29.333 -12 30 -32v-79h4c11.333 -0.666992 17.333 -6.33398 18 -17.001c-0.666992 -10.667 -6.66699 -16.334 -18 -17.001
h-4v-22c0 -12 -6.33301 -18 -19 -18c-12.667 -0.666992 -18.667 5.33301 -18 18v22zM84 74.002v71h-1l-34 -71h35z" />
    <glyph glyph-name="five" unicode="5" 
d="M64 147l-4.00391 -27c6.66699 1.33301 13 2 19 2c32.667 -2.66699 50.334 -20.667 53.001 -54c-1.33301 -45.333 -23.666 -68.333 -66.999 -69c-35.333 3.33301 -54.333 14 -57 32c1.33301 11.333 7.33301 17.333 18 18c2.66699 0 7.33398 -2.33301 14.001 -7
c10 -6.66699 18.333 -10 25 -10c16.667 1.33301 25.667 12.666 27 33.999c-0.666992 16.667 -8.66699 25.334 -24 26.001c-5.33301 0 -10.666 -1.66699 -15.999 -5c-5.33301 -2.66699 -10 -4 -14 -4c-8 0.666992 -13 4.66699 -15 12v9l7 54c1.33301 18 8 26 20 24h61
c12 -0.666992 18.333 -6 19 -16c0 -12.667 -6 -19 -18 -19h-48z" />
    <glyph glyph-name="six" unicode="6" 
d="M68 115c5.33301 2 10.6641 3 15.9971 3c32.667 -3.33301 50.667 -22.666 54 -57.999c-4 -38 -25.667 -58.333 -65 -61c-39.333 2 -60.666 22.333 -63.999 61c2.66699 36 24.334 75 65.001 117c2 2.66699 4.66699 5 8 7c3.33301 0.666992 6 1 8 1
c10.667 -2.66699 16.667 -8.66699 18 -18c0 -3.33301 -1.66699 -7 -5 -11c-2.66699 -2.66699 -7 -7.33398 -13 -14.001c-11.333 -12.667 -18.666 -21.667 -21.999 -27zM72.998 87c-15.333 -1.33301 -23.332 -10.332 -23.999 -26.999
c1.33301 -16.667 9.33301 -25.334 24 -26.001c15.333 1.33301 23.666 10 24.999 26c-0.666992 17.333 -9 26.333 -25 27z" />
    <glyph glyph-name="seven" unicode="7" horiz-adv-x="137" 
d="M24 26l64.001 121h-65c-12 0 -18.333 6 -19 18c0.666992 11.333 7 17 19 17h92c11.333 -0.666992 17.666 -6.66699 18.999 -18c0 -3.33301 -2 -9 -6 -17l-63 -129c-0.666992 -0.666992 -1 -1.66699 -1 -3c-6 -11.333 -13 -16.333 -21 -15
c-12.667 0 -19.667 5.66699 -21 17c0 1.33301 0.333008 3.33301 1 6c0.666992 1.33301 1 2.33301 1 3z" />
    <glyph glyph-name="eight" unicode="8" 
d="M73 83c-14 -0.666992 -21.667 -8.99902 -23 -24.999c1.33301 -16.667 9 -25.334 23 -26.001c14.667 1.33301 22.667 10 24 26c-0.666992 16 -8.66699 24.333 -24 25zM73 -0.999023c-39.333 2 -60.332 20.667 -62.999 56c0 19.333 9.33301 34.333 28 45
c-13.333 8.66699 -20 20.667 -20 36c2 30.667 20.333 47 55 49c35.333 -2.66699 54 -19 56 -49c-0.666992 -15.333 -7.33398 -27.333 -20.001 -36c18.667 -9.33301 28 -24.333 28 -45c-2.66699 -35.333 -24 -54 -64 -56zM73.001 152.001
c-11.333 -0.666992 -17.333 -7.33398 -18 -20.001c0.666992 -12 6.66699 -18.333 18 -19c12 0.666992 18.333 7 19 19c-0.666992 12.667 -7 19.334 -19 20.001z" />
    <glyph glyph-name="nine" unicode="9" 
d="M79 67v0.998047c-5.33301 -2 -10.666 -3 -15.999 -3c-32.667 3.33301 -50.667 22.333 -54 57c4 38.667 25.333 59.667 64 63c40 -2.66699 61.667 -23.667 65 -63c-2.66699 -36 -24.334 -75 -65.001 -117c-2 -2 -4.66699 -3.66699 -8 -5s-6 -1.66602 -8 -0.999023
c-10.667 1.33301 -16.667 7 -18 17c0 2.66699 1.66699 6 5 10c2.66699 4 8 10 16 18c10 10.667 16.333 18.334 19 23.001zM73 94.998c15.333 1.33301 23.666 10.332 24.999 26.999c-1.33301 16.667 -9.66602 25.334 -24.999 26.001c-14.667 -1.33301 -22.667 -10 -24 -26
c1.33301 -17.333 9.33301 -26.333 24 -27z" />
    <glyph glyph-name="colon" unicode=":" horiz-adv-x="68" 
d="M14 99c1.33301 12 8 18.667 20 20c12 -1.33301 18.667 -8 20 -20c-1.33301 -12 -8 -18.667 -20 -20c-12 1.33301 -18.667 8 -20 20zM14 17c1.33301 12 8.00195 18.667 20.002 20c12 -1.33301 18.667 -8 20 -20c-0.666992 -11.333 -7.33398 -17.333 -20.001 -18
c-12.667 0.666992 -19.334 6.66699 -20.001 18z" />
    <glyph glyph-name="semicolon" unicode=";" horiz-adv-x="68" 
d="M51 13l-22 -36.999c-3.33301 -4.66699 -8 -7.33398 -14 -8.00098c-10 0.666992 -15.333 6.33398 -16 17.001c0 1.33301 0.333008 3.66602 1 6.99902c0.666992 1.33301 1 2.33301 1 3l21 36c3.33301 5.33301 8.33301 8.33301 15 9c10 -1.33301 15.667 -7 17 -17
c0 -2 -0.666992 -4.33301 -2 -7c-0.666992 -1.33301 -1 -2.33301 -1 -3zM14 99.001c1.33301 12 8 18.667 20 20c12 -1.33301 18.667 -8 20 -20c-1.33301 -12 -8 -18.667 -20 -20c-12 1.33301 -18.667 8 -20 20z" />
    <glyph glyph-name="less" unicode="&#x3c;" horiz-adv-x="153" 
d="M50 65l85.001 -36c7.33301 -2.66699 10.666 -7 9.99902 -13c0 -10 -4.33301 -15.333 -13 -16c-3.33301 -0 -7.33301 1.33301 -12 4l-102 46c-6 2.66699 -9 7.66699 -9 15c0 6.66699 3 11.334 9 14.001l102 47c6.66699 2.66699 10.667 4 12 4
c8 -0.666992 12.333 -6.33398 13 -17.001c0 -6 -3.33301 -10.333 -10 -13z" />
    <glyph glyph-name="equal" unicode="=" horiz-adv-x="153" 
d="M24 109h105c10.667 0 16 -5.33301 16 -16c-0.666992 -9.33301 -6 -14.333 -16 -15h-105c-9.33301 0.666992 -14.333 5.66699 -15 15c0.666992 10 5.66699 15.333 15 16zM24 51h105c10 -0.666992 15.333 -5.66699 16 -15c-0.666992 -9.33301 -6 -14.333 -16 -15h-105
c-9.33301 0.666992 -14.333 5.66699 -15 15c0.666992 9.33301 5.66699 14.333 15 15z" />
    <glyph glyph-name="greater" unicode="&#x3e;" horiz-adv-x="153" 
d="M18 29l84.999 35.999l-85 35c-6 2.66699 -9 7 -9 13c0.666992 10.667 4.66699 16.334 12 17.001c2 0 6.33301 -1.33301 13 -4l101 -47c6.66699 -1.33301 10 -6 10 -14s-3.33301 -13 -10 -15l-101 -46c-5.33301 -2.66699 -9.66602 -4 -12.999 -4c-8 0.666992 -12 6 -12 16
c0 6 3 10.333 9 13z" />
    <glyph glyph-name="question" unicode="?" horiz-adv-x="123" 
d="M38 70v25.0029c0 5.33301 5.66699 9.66602 17 12.999c1.33301 0.666992 2.33301 1 3 1c14.667 3.33301 21.667 10.666 21 21.999c-1.33301 11.333 -8.33301 17.666 -21 18.999c-8 0 -16 -4.66699 -24 -14c-6.66699 -7.33301 -12.667 -11 -18 -11
c-9.33301 0.666992 -14.333 6.66699 -15 18c2.66699 24 21.667 38 57 42c38.667 -2.66699 59 -20.667 61 -54c0 -26.667 -15 -44 -45 -52v-9c-0.666992 -11.333 -6.66699 -17.333 -18 -18c-11.333 0.666992 -17.333 6.66699 -18 18zM56 -0.99707
c-12.667 0.666992 -19.332 6.66699 -19.999 18c1.33301 12 8 18.667 20 20c12 -1.33301 18.667 -8 20 -20c-0.666992 -11.333 -7.33398 -17.333 -20.001 -18z" />
    <glyph glyph-name="at" unicode="@" horiz-adv-x="204" 
d="M92 65c16 1.33301 24.667 10.333 26 27c-1.33301 14 -8 21.333 -20 22c-14 -1.33301 -22 -10.333 -24 -27c0.666992 -14 6.66699 -21.333 18 -22zM113 51c-8 -8.66699 -17.002 -13.001 -27.002 -13.001c-22.667 2.66699 -35.334 17.667 -38.001 45
c2.66699 35.333 19.334 54.333 50.001 57c12.667 0 22.667 -5 30 -15v3c0 8 5 12 15 12c6.66699 -0.666992 10.334 -3 11.001 -7c0 -3.33301 -0.333008 -6 -1 -8l-10 -47v-4c-0.666992 -2 -1 -3.33301 -1 -4c0 -4 2 -6 6 -6c16.667 4.66699 25.334 17.667 26.001 39
c-2.66699 36.667 -26.667 56.334 -72 59.001c-43.333 -4 -67 -27.667 -71 -71c4 -43.333 27.667 -67 71 -71c20.667 0 38.667 4 54 12c1.33301 0.666992 3.33301 2 6 4c5.33301 4.66699 9 7 11 7c6 0 9 -3 9 -9c0 -4.66699 -2.33301 -9.33398 -7 -14.001
c-16 -14.667 -40.333 -21.667 -73 -21c-57.333 4.66699 -88.666 35.334 -93.999 92.001c5.33301 57.333 36.666 88.666 93.999 93.999c58 -5.33301 89.667 -32.666 95 -81.999c-1.33301 -35.333 -23.333 -57 -66 -65c-11.333 0 -17.333 4.33301 -18 13z" />
    <glyph glyph-name="A" unicode="A" horiz-adv-x="161" 
d="M2 25l51.998 139c5.33301 13.333 14.333 20.333 27 21c12.667 0 22 -7 28 -21l50 -139c1.33301 -4 2 -7.33301 2 -10c-0.666992 -10 -6.66699 -15 -18 -15c-9.33301 0 -15.666 4 -18.999 12l-7 24h-71l-8 -24c-3.33301 -8 -9.66602 -12 -18.999 -12
c-11.333 -0 -17.333 5.33301 -18 16c0 2 0.333008 4.33301 1 7v2zM80.998 145l-24 -74h48z" />
    <glyph glyph-name="B" unicode="B" 
d="M12 19v143.999c0.666992 12 7.33398 18.333 20.001 19h49c30 -2 46 -17 48 -45c0 -18 -8 -30.333 -24 -37v-1c24 -5.33301 37 -19.666 39 -42.999c-1.33301 -36 -21 -54.667 -59 -56h-53c-12.667 0.666992 -19.334 7 -20.001 19zM50 147.999v-38.001h20
c13.333 0.666992 20.333 7.33398 21 20.001c-0.666992 11.333 -7.66699 17.333 -21 18h-20zM50 75.998v-42h30c15.333 0.666992 23.333 8 24 22c-0.666992 13.333 -9.66699 20 -27 20h-27z" />
    <glyph glyph-name="C" unicode="C" horiz-adv-x="156" 
d="M4 91c4 58.667 33.333 90.001 88 94.001c35.333 -2 53.666 -11.333 54.999 -28c-0.666992 -10.667 -5.66699 -16.334 -15 -17.001c-3.33301 0 -7.66602 1 -12.999 3c-9.33301 3.33301 -18.333 5 -27 5c-30 -2 -46 -21.333 -48 -58c2 -35.333 18 -54 48 -56
c8.66699 0 18 2.33301 28 7c6 2.66699 10.333 4 13 4c10 -0.666992 15.667 -6.66699 17 -18c-0.666992 -18 -20 -27.333 -58 -28c-54.667 3.33301 -84 34 -88 92z" />
    <glyph glyph-name="D" unicode="D" horiz-adv-x="170" 
d="M12 19l0.000976562 144.001c0.666992 12 7 18.333 19 19h43c58 -2 88 -33 90 -93c-2.66699 -56.667 -32 -86.334 -88 -89.001h-44c-12.667 0.666992 -19.334 7 -20.001 19zM50.001 147.001v-111.999h26c30.667 1.33301 46.667 19.666 48 54.999
c-0.666992 37.333 -17.667 56.333 -51 57h-23z" />
    <glyph glyph-name="E" unicode="E" horiz-adv-x="118" 
d="M12 19v141.001c0 14.667 6.33301 22 19 22h64c11.333 -0.666992 17.333 -6.33398 18 -17.001c-0.666992 -11.333 -6.66699 -17.333 -18 -18h-45v-37h42c11.333 -0.666992 17.666 -6.66699 18.999 -18c-1.33301 -11.333 -7.66602 -17.333 -18.999 -18h-42v-39h47
c11.333 0 17.333 -5.66699 18 -17c-0.666992 -11.333 -6.66699 -17.333 -18 -18h-66c-12 0.666992 -18.333 7 -19 19z" />
    <glyph glyph-name="F" unicode="F" horiz-adv-x="113" 
d="M12 18v144c0.666992 12.667 7 19.334 19 20.001h66c10.667 -0.666992 16.334 -6.33398 17.001 -17.001c-0.666992 -11.333 -6.33398 -17.333 -17.001 -18h-47v-37h40c11.333 -0.666992 17.333 -6.66699 18 -18c-0.666992 -11.333 -6.66699 -17.333 -18 -18h-40v-56
c-0.666992 -12 -7 -18 -19 -18s-18.333 6 -19 18z" />
    <glyph glyph-name="G" unicode="G" horiz-adv-x="180" 
d="M110 108l43.001 -0.000976562c16 0 23.667 -8.33301 23 -25c-3.33301 -54 -31.333 -82 -84 -84c-54.667 3.33301 -84 34 -88 92c4 58.667 33.333 90 88 94c42 -2.66699 65.667 -14.667 71 -36c-0.666992 -11.333 -6 -17.333 -16 -18
c-4.66699 0 -10.334 2.33301 -17.001 7c-12 8 -24.667 12 -38 12c-30 -2 -46 -21.667 -48 -59c2 -37.333 18 -57 48 -59c28 2 42.667 15.667 44 41h-26c-11.333 0.666992 -17.333 6.66699 -18 18c0.666992 10.667 6.66699 16.334 18 17.001z" />
    <glyph glyph-name="H" unicode="H" horiz-adv-x="180" 
d="M12 18v146c0.666992 12.667 7 19.334 19 20.001c12 -0.666992 18.333 -7.33398 19 -20.001v-54h80v54c0.666992 12.667 7.33398 19.334 20.001 20.001c12 -0.666992 18.333 -7.33398 19 -20.001v-146c-0.666992 -12 -7 -18 -19 -18c-12.667 0 -19.334 6 -20.001 18v56
h-80v-56c-0.666992 -12 -7 -18 -19 -18s-18.333 6 -19 18z" />
    <glyph glyph-name="I" unicode="I" horiz-adv-x="61" 
d="M12 18v146c0.666992 12.667 7 19.334 19 20.001c12 -0.666992 18.333 -7.33398 19 -20.001v-146c-0.666992 -12 -7 -18 -19 -18s-18.333 6 -19 18z" />
    <glyph glyph-name="J" unicode="J" horiz-adv-x="104" 
d="M94 164l0.000976562 -113c0 -34 -16.667 -51.333 -50 -52c-30 0.666992 -45.333 9.66699 -46 27c1.33301 10 5.66602 15.333 12.999 16c3.33301 0 8 -1.66699 14 -5c6.66699 -3.33301 12 -5 16 -5c10.667 0 15.667 7.33301 15 22v110c0.666992 12.667 7 19.334 19 20.001
c12 -0.666992 18.333 -7.33398 19 -20.001z" />
    <glyph glyph-name="K" unicode="K" horiz-adv-x="156" 
d="M12 17l0.00195312 148c0.666992 12 7 18.333 19 19c12 -0.666992 18.333 -7 19 -19v-55l63 67c4.66699 4.66699 9.66699 7 15 7c11.333 -1.33301 17.666 -7.66602 18.999 -18.999c0 -5.33301 -4.33301 -12 -13 -20l-48 -48l59 -61l2 -2
c6.66699 -6.66699 9.66699 -12.667 9 -18c-0.666992 -10.667 -7.33398 -16 -20.001 -16c-6 -0.666992 -12.667 2.66602 -20 9.99902l-66 72v-65c-0.666992 -11.333 -7 -17 -19 -17s-18.333 5.66699 -19 17z" />
    <glyph glyph-name="L" unicode="L" horiz-adv-x="109" 
d="M12 21v143c0.666992 12.667 7 19.334 19 20.001c12 -0.666992 18.333 -7.33398 19 -20.001v-129h45c12 0 18.333 -6 19 -18c-2 -11.333 -8.33301 -17 -19 -17h-64c-12 0.666992 -18.333 7.66699 -19 21z" />
    <glyph glyph-name="M" unicode="M" horiz-adv-x="222" 
d="M6 21l23.999 142.999c4 12.667 12.333 19.334 25 20.001c12.667 -0.666992 21.334 -7 26.001 -19l30 -101h1l30 101c4.66699 12 13 18.333 25 19c13.333 -0.666992 22 -7.33398 26 -20.001l23 -143c0.666992 -1.33301 1 -2.66602 1 -3.99902
c-0.666992 -11.333 -7 -17 -19 -17c-12 -0.666992 -18.667 4.66602 -20 15.999l-15 105l-31 -108c-3.33301 -8.66699 -10.333 -13 -21 -13c-10 0 -16.667 4.33301 -20 13l-31 108l-15 -105c-1.33301 -11.333 -8 -16.666 -20 -15.999c-12 0 -18.333 5.66699 -19 17v4z" />
    <glyph glyph-name="N" unicode="N" horiz-adv-x="175" 
d="M10 18v145.999c0.666992 12.667 7 19.334 19 20.001c6.66699 -0.666992 12 -3.66699 16 -9l81 -108h1v97c0.666992 12.667 7 19.334 19 20.001c12 -0.666992 18.333 -7.33398 19 -20.001v-146c-0.666992 -12 -7 -18 -19 -18c-6.66699 -0 -12 2.33301 -16 7l-81 107h-1
v-96c-0.666992 -12 -7 -18 -19 -18s-18.333 6 -19 18z" />
    <glyph glyph-name="O" unicode="O" horiz-adv-x="184" 
d="M92 32c30.667 1.33301 47 21 49 59c-2 37.333 -18.333 57 -49 59c-30 -2 -46 -21.667 -48 -59c2 -37.333 18 -57 48 -59zM92 -1c-54.667 3.33301 -84 34.001 -88 92.001c4 58.667 33.333 90 88 94c54 -4 83.333 -35.333 88 -94c-4 -58.667 -33.333 -89.334 -88 -92.001z
" />
    <glyph glyph-name="P" unicode="P" horiz-adv-x="142" 
d="M12 18l-0.000976562 143.999c0.666992 12.667 7 19.334 19 20.001h46c40.667 -2.66699 62.334 -23 65.001 -61c-2.66699 -38 -24 -58.333 -64 -61h-28v-42c-0.666992 -12 -7 -18 -19 -18s-18.333 6 -19 18zM49.999 147.999l0.000976562 -54h26
c16 1.33301 24.667 10.333 26 27c-0.666992 17.333 -9.33398 26.333 -26.001 27h-26z" />
    <glyph glyph-name="Q" unicode="Q" horiz-adv-x="184" 
d="M152 -2l-14.999 10c-12 -6 -27 -9 -45 -9c-54.667 3.33301 -84 34 -88 92c4 58.667 33.333 90 88 94c54 -4 83.333 -35.333 88 -94c0 -24 -5.66699 -43.667 -17 -59l15 -13c6 -4.66699 9 -9.66699 9 -15c-1.33301 -8 -7.33301 -12.667 -18 -14
c-4.66699 -0.666992 -10.334 2 -17.001 8zM122.001 68l12 -9.99902c4.66699 10 7 21 7 33c-2 37.333 -18.333 57 -49 59c-30 -2 -46 -21.667 -48 -59c2 -37.333 18 -57 48 -59c6 0 11.667 0.666992 17 2l-9 9c-3.33301 3.33301 -5 6.66602 -5 9.99902
c1.33301 12 7 18.333 17 19c4 0 7.33301 -1.33301 10 -4z" />
    <glyph glyph-name="R" unicode="R" horiz-adv-x="142" 
d="M12 18v144c0 13.333 6.33301 20 19 20h45c42.667 0 64 -19.333 64 -58c-0.666992 -26 -16.334 -42 -47.001 -48l43 -47c4 -3.33301 5.66699 -7 5 -11c-1.33301 -11.333 -7.66602 -17.333 -18.999 -18c-6.66699 0 -11.667 1.66699 -15 5l-57 69v-56
c-0.666992 -12 -7 -18 -19 -18s-18.333 6 -19 18zM50 147v-45.001h26c15.333 0.666992 23.333 8 24 22c-0.666992 14.667 -8.66699 22.334 -24 23.001h-26z" />
    <glyph glyph-name="S" unicode="S" horiz-adv-x="137" 
d="M69 185c32 -2 48.668 -10.334 50.001 -25.001c-0.666992 -12 -6.33398 -18.333 -17.001 -19c-2.66699 0 -7.33398 1 -14.001 3c-8 2.66699 -14.667 4 -20 4c-13.333 -0.666992 -20.333 -6 -21 -16c0 -7.33301 9.66699 -13.666 29 -18.999c38 -11.333 57 -30.333 57 -57
c-2.66699 -36 -24.667 -55 -66 -57c-40.667 0.666992 -61.334 9.66699 -62.001 27c0.666992 11.333 6.33398 17.333 17.001 18c3.33301 0 9.33301 -1.33301 18 -4c10.667 -4 19 -6 25 -6c16.667 0.666992 25.334 8 26.001 22c0 8 -10.667 15.333 -32 22
c-35.333 10 -53 26.333 -53 49c2.66699 36 23.667 55.333 63 58z" />
    <glyph glyph-name="T" unicode="T" horiz-adv-x="122" 
d="M42 18l0.000976562 129h-28c-9.33301 0 -14.333 6 -15 18c0.666992 10.667 5.66699 16.334 15 17.001h95c10.667 -0.666992 16.334 -6.33398 17.001 -17.001c-0.666992 -11.333 -6.33398 -17.333 -17.001 -18h-28v-129c-0.666992 -12 -7.33398 -18 -20.001 -18
c-12 0 -18.333 6 -19 18z" />
    <glyph glyph-name="U" unicode="U" horiz-adv-x="175" 
d="M10 72v92c0.666992 12.667 7 19.334 19 20.001c12 -0.666992 18.333 -7.33398 19 -20.001v-90c2 -26.667 15.333 -40.667 40 -42c24 2 37 16 39 42v90c0.666992 12.667 7 19.334 19 20.001c12 -0.666992 18.333 -7.33398 19 -20.001v-92
c-4 -45.333 -29.667 -69.666 -77 -72.999c-48 3.33301 -74 27.666 -78 72.999z" />
    <glyph glyph-name="V" unicode="V" horiz-adv-x="151" 
d="M57 13l-56.001 142.998c-0.666992 3.33301 -1 6.33301 -1 9c0.666992 12 7 18.333 19 19c7.33301 0 13 -4.33301 17 -13l40 -106l39 106c4.66699 8.66699 10.667 13 18 13c12 -1.33301 18.667 -7.66602 20 -18.999c0 -2.66699 -0.666992 -5.66699 -2 -9l-56 -143
c-4 -9.33301 -10.333 -13.666 -19 -12.999c-9.33301 -0 -15.666 4.33301 -18.999 13z" />
    <glyph glyph-name="W" unicode="W" horiz-adv-x="232" 
d="M36 18l-33.001 139.999c-0.666992 2.66699 -1 5.66699 -1 9c1.33301 10.667 7.33301 16.334 18 17.001c11.333 0.666992 18.333 -5.66602 21 -18.999l21 -108h1l33 112c4 9.33301 10.667 14.333 20 15c10 0 16.667 -5 20 -15l33 -112h1l22 108c2 12.667 8.66699 19 20 19
c10.667 -0.666992 16.667 -6.33398 18 -17.001c0 -3.33301 -0.333008 -6.33301 -1 -9l-32 -140c-4 -12 -12.333 -18 -25 -18c-13.333 0 -22 5.66699 -26 17l-30 99l-30 -99c-4 -11.333 -12.333 -17 -25 -17c-13.333 0 -21.666 6 -24.999 18z" />
    <glyph glyph-name="X" unicode="X" horiz-adv-x="156" 
d="M5 29l50.999 69l-41 56c-3.33301 3.33301 -5 7 -5 11c0.666992 11.333 7.33398 17.666 20.001 18.999c6 0 11.667 -3.33301 17 -10l31 -45l32 45c5.33301 6.66699 11 10 17 10c12 -0.666992 18.333 -7 19 -19c0 -4 -1.33301 -7.66699 -4 -11l-41 -56l50 -69
c3.33301 -3.33301 5 -7.66602 5 -12.999c-0.666992 -10.667 -7.33398 -16 -20.001 -16c-6.66699 -0 -12 2.33301 -16 7l-42 58l-42 -58c-3.33301 -4.66699 -8.66602 -7 -15.999 -7c-12 -0 -18.333 5.33301 -19 16c0.666992 6.66699 2 11 4 13z" />
    <glyph glyph-name="Y" unicode="Y" horiz-adv-x="137" 
d="M49 17l0.000976562 68.998l-48 68c0 0.666992 -0.333008 1.33398 -1 2.00098c-0.666992 4 -1 7 -1 9c0.666992 12 6.33398 18.333 17.001 19c6.66699 0 12 -2.66699 16 -8l37 -53l36 53c4.66699 5.33301 10 8 16 8c11.333 -1.33301 17.666 -7.66602 18.999 -18.999
c0 -4 -1.33301 -7.66699 -4 -11l-48 -68v-69c-0.666992 -11.333 -7 -17 -19 -17c-12.667 0 -19.334 5.66699 -20.001 17z" />
    <glyph glyph-name="Z" unicode="Z" horiz-adv-x="151" 
d="M54 34l74 -0.000976562c11.333 -0.666992 17.333 -6.33398 18 -17.001c-0.666992 -10 -6.66699 -15.667 -18 -17h-101c-13.333 0.666992 -20.333 6.66699 -21 18c0 6 1.66699 11 5 15l82 115h-67c-11.333 0.666992 -17.333 6.33398 -18 17.001
c0.666992 10.667 6.66699 16.334 18 17.001h94c12.667 -0.666992 19.667 -6.66699 21 -18c0 -6 -2 -11.667 -6 -17z" />
    <glyph glyph-name="bracketleft" unicode="[" horiz-adv-x="71" 
d="M11 -19v186c0.666992 11.333 7 17.333 19 18h26c8.66699 0 13 -4.66699 13 -14c0 -10 -4.33301 -15 -13 -15h-12v-164h12c8.66699 0 13 -5 13 -15c0 -9.33301 -4.33301 -14 -13 -14h-26c-12 0.666992 -18.333 6.66699 -19 18z" />
    <glyph glyph-name="backslash" unicode="\" horiz-adv-x="104" 
d="M31 176l69 -158.002c1.33301 -3.33301 2 -5.66602 2 -6.99902c-0.666992 -7.33301 -5.66699 -11.333 -15 -12c-7.33301 0 -12 2.33301 -14 7l-69 158c0 1.33301 -0.333008 3 -1 5l-1 2c0.666992 8.66699 5.66699 13.334 15 14.001c8 0 12.667 -3 14 -9z" />
    <glyph glyph-name="bracketright" unicode="]" horiz-adv-x="71" 
d="M60 167v-186c-0.666992 -11.333 -7 -17.333 -19 -18h-25c-9.33301 0 -14 4.66699 -14 14c0 10 4.66699 15 14 15h12v164h-12c-9.33301 0 -14 5 -14 15c0 9.33301 4.66699 14 14 14h25c12 -0.666992 18.333 -6.66699 19 -18z" />
    <glyph glyph-name="asciicircum" unicode="^" horiz-adv-x="56" 
d="M1 185l26.999 11l28 -11c7.33301 -2.66699 11 -8 11 -16c-1.33301 -9.33301 -6.33301 -14.666 -15 -15.999c-2.66699 0 -7.33398 1.33301 -14.001 4l-10 5l-10 -5c-5.33301 -2.66699 -9.66602 -4 -12.999 -4c-7.33301 1.33301 -11.666 6.66602 -12.999 15.999
c0 8 3 13.333 9 16z" />
    <glyph glyph-name="underscore" unicode="_" horiz-adv-x="128" 
d="M128 -30h-128.001c-3.33301 0 -5 2 -5 6c0.666992 4 2.33398 6.33301 5.00098 7h128c4.66699 -0.666992 7 -3 7 -7s-2.33301 -6 -7 -6z" />
    <glyph glyph-name="grave" unicode="`" horiz-adv-x="56" 
d="M20 195l31 -12.002l2 -1c4.66699 -2 7 -5.33301 7 -10c-1.33301 -11.333 -6 -17.666 -14 -18.999c-2 0 -3.66699 0.333008 -5 1s-3 1.33398 -5 2.00098l-29 11c-5.33301 2 -8 7 -8 15c0.666992 10 4.66699 15.333 12 16c3.33301 0 6.33301 -1 9 -3z" />
    <glyph glyph-name="a" unicode="a" 
d="M136 114l0.000976562 -91c0.666992 -15.333 -5 -23 -17 -23c-9.33301 -0.666992 -15.333 4 -18 14c-9.33301 -10 -21 -15 -35 -15c-38 2 -58.333 25 -61 69c3.33301 43.333 23.666 67 60.999 71c16 0 27.667 -5.66699 35 -17c2 10 8 15.333 18 16c12 0 17.667 -8 17 -24z
M42.001 68c1.33301 -23.333 11 -35.666 29 -36.999c18 1.33301 27.667 13.666 29 36.999c-1.33301 23.333 -11 35.666 -29 36.999c-18 -1.33301 -27.667 -13.666 -29 -36.999z" />
    <glyph glyph-name="b" unicode="b" 
d="M10 19l-0.000976562 158c0.666992 12.667 7 19.334 19 20.001c11.333 -0.666992 17.333 -7.33398 18 -20.001v-51c9.33301 8.66699 21 13 35 13c36.667 -2.66699 56.667 -27 60 -73c-3.33301 -42 -23.666 -64.333 -60.999 -67c-16 0.666992 -27.333 5.66699 -34 15
c-2 -9.33301 -8 -14 -18 -14c-12 -0 -18.333 6.33301 -19 19zM46.999 69c1.33301 -24 11 -36.665 29 -37.998c17.333 1.33301 27 13.666 29 36.999c-2 23.333 -11.667 35.666 -29 36.999c-18 -1.33301 -27.667 -13.333 -29 -36z" />
    <glyph glyph-name="c" unicode="c" horiz-adv-x="118" 
d="M116 116c-1.33301 -11.333 -6.00098 -17.335 -14.001 -18.002c-2.66699 0 -6.66699 1 -12 3c-7.33301 2.66699 -13 4 -17 4c-19.333 -1.33301 -29.666 -13.666 -30.999 -36.999c2 -23.333 12.333 -35.666 31 -36.999c3.33301 0 9.33301 1.66699 18 5
c4.66699 1.33301 7.66699 2 9 2c10 -0.666992 15.333 -6 16 -16c-0.666992 -14 -15.667 -21.667 -45 -23c-41.333 2 -63.333 25 -66 69c4 44 26 67.667 66 71c29.333 -1.33301 44.333 -9 45 -23z" />
    <glyph glyph-name="d" unicode="d" 
d="M136 177l-0.000976562 -158c-0.666992 -12.667 -6.66699 -19 -18 -19c-10 0 -16 4.66699 -18 14c-6.66699 -9.33301 -18 -14.333 -34 -15c-37.333 2.66699 -57.666 25 -60.999 67c3.33301 46 23.333 70.333 60 73c14 0 25.667 -4.33301 35 -13v51
c0.666992 12.667 6.66699 19.334 18 20.001c11.333 -0.666992 17.333 -7.33398 18 -20.001zM99.999 69c-1.33301 22.667 -11 34.665 -29 35.998c-18 -1.33301 -27.667 -13.666 -29 -36.999c1.33301 -23.333 11 -35.666 29 -36.999c18 1.33301 27.667 14 29 38z" />
    <glyph glyph-name="e" unicode="e" horiz-adv-x="137" 
d="M119 56l-79 -0.00195312c3.33301 -17.333 15 -26.333 35 -27c7.33301 0 16.666 3 27.999 9c6.66699 4 11.334 6 14.001 6c8.66699 -1.33301 13.667 -6.66602 15 -15.999c-4.66699 -17.333 -24.667 -27 -60 -29c-43.333 2 -66.333 25 -69 69c4 44 26 67.667 66 71
c38.667 -3.33301 60.667 -25.666 66 -66.999c0 -10.667 -5.33301 -16 -16 -16zM39 79.998h59.001c-2.66699 18.667 -12.334 28.334 -29.001 29.001c-16.667 -0.666992 -26.667 -10.334 -30 -29.001z" />
    <glyph glyph-name="f" unicode="f" horiz-adv-x="75" 
d="M19 19l-0.000976562 85.001h-8c-9.33301 0.666992 -14 6 -14 16c0.666992 10 5.33398 15.333 14.001 16h8v19c0.666992 26.667 13.667 40.667 39 42c16.667 0 25 -5.66699 25 -17c0 -10 -5 -15 -15 -15c-8 1.33301 -12 -3.33398 -12 -14.001v-15h11
c12.667 0 19 -5.33301 19 -16s-6.33301 -16 -19 -16h-11v-85c-0.666992 -12.667 -7 -19 -19 -19c-11.333 -0 -17.333 6.33301 -18 19z" />
    <glyph glyph-name="g" unicode="g" 
d="M136 117v-105.996c-1.33301 -42 -24.666 -63.667 -69.999 -65c-37.333 3.33301 -57 12.666 -59 27.999c2 9.33301 7 14.666 15 15.999c3.33301 0 9 -1.66699 17 -5c11.333 -4.66699 21 -7 29 -7c20 1.33301 30.667 10.666 32 27.999v8h-1c-8 -10 -20.333 -15 -37 -15
c-36 0.666992 -55 23.667 -57 69c3.33301 44 23.666 67.667 60.999 71c16 -0.666992 27.333 -6.33398 34 -17.001c2 10.667 8 16 18 16c11.333 -0.666992 17.333 -7.66699 18 -21zM100 67.0039c-1.33301 24 -11 36.666 -29 37.999c-18 -1.33301 -27.667 -13.666 -29 -36.999
c1.33301 -24 11 -36.333 29 -37c18 1.33301 27.667 13.333 29 36z" />
    <glyph glyph-name="h" unicode="h" horiz-adv-x="142" 
d="M10 19v158.001c0.666992 12.667 7 19.334 19 20.001c11.333 -0.666992 17.333 -7.33398 18 -20.001v-51h1c6.66699 8.66699 17.667 13 33 13c32.667 -2 49.667 -18.333 51 -49v-71c-0.666992 -12.667 -7 -19 -19 -19c-11.333 0 -17.333 6.33301 -18 19v64
c-0.666992 16 -8.66699 24.667 -24 26c-15.333 -0.666992 -23.333 -9.33398 -24 -26.001v-64c-0.666992 -12.667 -6.66699 -19 -18 -19c-12 -0 -18.333 6.33301 -19 19z" />
    <glyph glyph-name="i" unicode="i" horiz-adv-x="56" 
d="M10 19v98c0.666992 13.333 6.66699 20.333 18 21c12 -0.666992 18.333 -7.66699 19 -21v-98c-0.666992 -12.667 -7 -19 -19 -19c-11.333 -0 -17.333 6.33301 -18 19zM28 193c12.667 -1.33301 19.667 -8 21 -20c-0.666992 -12.667 -7.66699 -19.667 -21 -21
c-12 1.33301 -18.667 8.33301 -20 21c1.33301 12 8 18.667 20 20z" />
    <glyph glyph-name="j" unicode="j" horiz-adv-x="56" 
d="M10 -33v150c0.666992 13.333 6.66699 20.333 18 21c12 -0.666992 18.333 -7.66699 19 -21v-150c-0.666992 -13.333 -7 -20.333 -19 -21c-11.333 0.666992 -17.333 7.66699 -18 21zM28 193c12.667 -1.33301 19.667 -8 21 -20c-0.666992 -12.667 -7.66699 -19.667 -21 -21
c-12 1.33301 -18.667 8.33301 -20 21c1.33301 12 8 18.667 20 20z" />
    <glyph glyph-name="k" unicode="k" horiz-adv-x="128" 
d="M10 19l0.00195312 158.001c0.666992 12.667 7 19.334 19 20.001c11.333 -0.666992 17.333 -7.33398 18 -20.001v-86l41 39c6.66699 5.33301 12 8 16 8c9.33301 -0.666992 14.666 -6.33398 15.999 -17.001c0 -4.66699 -2.33301 -9.66699 -7 -15l-33 -29l43 -50
c4 -4 5.66699 -8.33301 5 -13c-0.666992 -9.33301 -6.33398 -14.333 -17.001 -15c-6 0 -12 3 -18 9l-45 56h-1v-45c-0.666992 -12.667 -6.66699 -19 -18 -19c-12 -0 -18.333 6.33301 -19 19z" />
    <glyph glyph-name="l" unicode="l" horiz-adv-x="56" 
d="M10 19v158c0.666992 12.667 6.66699 19.334 18 20.001c12 -0.666992 18.333 -7.33398 19 -20.001v-158c-0.666992 -12.667 -7 -19 -19 -19c-11.333 -0 -17.333 6.33301 -18 19z" />
    <glyph glyph-name="m" unicode="m" horiz-adv-x="218" 
d="M10 19l0.000976562 98c0.666992 13.333 7 20.333 19 21c10 -0.666992 15.667 -5.33398 17 -14.001c9.33301 10 20.666 15 33.999 15c16 0 28.667 -6 38 -18c12 11.333 25 17.333 39 18c32.667 -1.33301 49.667 -17.666 51 -48.999v-71c-0.666992 -12.667 -7 -19 -19 -19
c-11.333 -0 -17.333 6.33301 -18 19v64c-0.666992 16.667 -8 25.334 -22 26.001c-14 -1.33301 -21.333 -10 -22 -26v-64c-0.666992 -12.667 -6.66699 -19 -18 -19s-17.333 6.33301 -18 19v64c-0.666992 16 -8 24.667 -22 26c-14 -0.666992 -21.333 -9.33398 -22 -26.001v-64
c-0.666992 -12.667 -6.66699 -19 -18 -19c-12 -0 -18.333 6.33301 -19 19z" />
    <glyph glyph-name="n" unicode="n" horiz-adv-x="142" 
d="M10 19l-0.000976562 98.002c0.666992 13.333 7 20.333 19 21c10 -0.666992 15.667 -5.33398 17 -14.001c6.66699 10 18.334 15 35.001 15c32.667 -2 49.667 -18.333 51 -49v-71c-0.666992 -12.667 -7 -19 -19 -19c-11.333 0 -17.333 6.33301 -18 19v64
c-0.666992 16 -8.66699 24.667 -24 26c-15.333 -0.666992 -23.333 -9.33398 -24 -26.001v-64c-0.666992 -12.667 -6.66699 -19 -18 -19c-12 -0 -18.333 6.33301 -19 19z" />
    <glyph glyph-name="o" unicode="o" horiz-adv-x="142" 
d="M71 139c40 -3.33301 62 -27 66 -71c-2.66699 -44 -24.667 -67 -66 -69c-41.333 2 -63.333 25 -66 69c4 44 26 67.667 66 71zM71 105c-18 -1.33301 -27.667 -13.666 -29 -36.999c1.33301 -23.333 11 -35.666 29 -36.999c18 1.33301 27.667 13.666 29 36.999
c-1.33301 23.333 -11 35.666 -29 36.999z" />
    <glyph glyph-name="p" unicode="p" 
d="M10 -33l-0.00195312 149.999c0.666992 13.333 7 20.333 19 21c10 0 16 -5.33301 18 -16c6.66699 10.667 18.334 16.334 35.001 17.001c36.667 -2.66699 56.667 -27 60 -73c-3.33301 -42 -23.666 -64.333 -60.999 -67c-14 0 -25.333 3.66699 -34 11v-43
c-0.666992 -13.333 -6.66699 -20.333 -18 -21c-12 0.666992 -18.333 7.66699 -19 21zM46.998 68.999c1.33301 -24 11 -36.665 29 -37.998c17.333 1.33301 27 13.666 29 36.999c-2 23.333 -11.667 35.666 -29 36.999c-18 -1.33301 -27.667 -13.333 -29 -36z" />
    <glyph glyph-name="q" unicode="q" 
d="M136 117l-0.00195312 -149.999c-0.666992 -13.333 -6.66699 -20.333 -18 -21c-11.333 0.666992 -17.333 7.66699 -18 21v43c-8.66699 -7.33301 -20 -11 -34 -11c-37.333 2.66699 -57.666 25 -60.999 67c3.33301 46 23.333 70.333 60 73
c16.667 -0.666992 28.334 -6.33398 35.001 -17.001c2 10.667 8 16 18 16c11.333 -0.666992 17.333 -7.66699 18 -21zM99.998 69.001c-1.33301 22.667 -11 34.665 -29 35.998c-18 -1.33301 -27.667 -13.666 -29 -36.999c1.33301 -23.333 11 -35.666 29 -36.999
c18 1.33301 27.667 14 29 38z" />
    <glyph glyph-name="r" unicode="r" horiz-adv-x="85" 
d="M10 19l-0.00292969 100c0.666992 12 7 18.333 19 19c12 0 18 -5.33301 18 -16c6.66699 10.667 15.334 16 26.001 16c11.333 -1.33301 17.333 -8 18 -20c0 -6 -5 -11 -15 -15c-3.33301 -1.33301 -5.66602 -2.33301 -6.99902 -3c-15.333 -6 -22.666 -14 -21.999 -24v-57
c-0.666992 -12.667 -7 -19 -19 -19c-11.333 -0 -17.333 6.33301 -18 19z" />
    <glyph glyph-name="s" unicode="s" horiz-adv-x="109" 
d="M103 113c-0.666992 -10.667 -5.66602 -16.332 -14.999 -16.999c-2 0 -6 1.33301 -12 4c-9.33301 4.66699 -16.333 7 -21 7c-8.66699 0 -13 -3.33301 -13 -10c0 -4.66699 7.33301 -9.66699 22 -15c28 -10.667 42 -24.667 42 -42c-2 -26.667 -19.333 -40.334 -52 -41.001
c-30.667 2 -47.667 10.667 -51 26c1.33301 10.667 6.33301 16.334 15 17.001c4.66699 0 10.667 -2 18 -6c8 -4.66699 15 -7 21 -7c10 0 14.667 3.66699 14 11c0 4.66699 -7.33301 9.66699 -22 15c-28 10 -42 23.667 -42 41c2 27.333 18.667 41.666 50 42.999
c29.333 -2 44.666 -10.667 45.999 -26z" />
    <glyph glyph-name="t" unicode="t" horiz-adv-x="75" 
d="M19 19v85h-8c-9.33301 0.666992 -14 6 -14 16c0.666992 10 5.33398 15.333 14.001 16h8v22c0.666992 13.333 7 20.333 19 21c11.333 -0.666992 17.333 -7.66699 18 -21v-22h11c11.333 0 17 -5.33301 17 -16c-0.666992 -10 -6.33398 -15.333 -17.001 -16h-11v-85
c-0.666992 -12.667 -6.66699 -19 -18 -19c-12 -0 -18.333 6.33301 -19 19z" />
    <glyph glyph-name="u" unicode="u" horiz-adv-x="142" 
d="M10 51l-0.00195312 66c0.666992 13.333 7 20.333 19 21c11.333 -0.666992 17.333 -7.66699 18 -21v-66c0.666992 -14 8.66699 -21.667 24 -23c15.333 1.33301 23.333 9 24 23v66c0.666992 13.333 6.66699 20.333 18 21c12 -0.666992 18.333 -7.66699 19 -21v-66
c-1.33301 -34 -21.666 -51.333 -60.999 -52c-39.333 0.666992 -59.666 18 -60.999 52z" />
    <glyph glyph-name="v" unicode="v" horiz-adv-x="118" 
d="M39 14l-36.999 94.999c-1.33301 3.33301 -2 7 -2 11c0.666992 11.333 7 17.333 19 18c8 0 13.333 -4.33301 16 -13l24 -73l24 73c3.33301 8.66699 8.66602 13 15.999 13c12.667 -0.666992 19.334 -6.66699 20.001 -18c0 -2.66699 -0.666992 -6 -2 -10
c0 0.666992 -0.333008 0.333984 -1 -0.999023l-37 -95c-2.66699 -10 -9.33398 -14.667 -20.001 -14c-10 -0.666992 -16.667 4 -20 14z" />
    <glyph glyph-name="w" unicode="w" horiz-adv-x="199" 
d="M37 17l-31.001 88c-2.66699 7.33301 -4 13.333 -4 18c0.666992 9.33301 6.66699 14.333 18 15c9.33301 -0.666992 15.333 -5.66699 18 -15l21 -70l22 69c2.66699 10.667 9 16 19 16c8.66699 0 14.667 -5.33301 18 -16l22 -69l22 70c2.66699 10 8.33398 15 17.001 15
c11.333 -0.666992 17.333 -6.66699 18 -18c0 -3.33301 -1 -8 -3 -14l-32 -89c-4 -11.333 -11.333 -17 -22 -17s-17.667 5.33301 -21 16l-19 59h-1l-19 -59c-2.66699 -10.667 -9.66699 -16 -21 -16c-10.667 0 -18 5.66699 -22 17z" />
    <glyph glyph-name="x" unicode="x" horiz-adv-x="128" 
d="M5 29l37.002 42l-31 35c-3.33301 4 -5 8.66699 -5 14c1.33301 10.667 7.66602 16.667 18.999 18c4.66699 0 9 -2.33301 13 -7l26 -33l26 33c4 4.66699 8.33301 7 13 7c11.333 -1.33301 17.666 -7.33301 18.999 -18c0 -5.33301 -1.66699 -10 -5 -14l-31 -35l37 -42
c3.33301 -3.33301 5 -7.66602 5 -12.999c-0.666992 -10.667 -6.66699 -16 -18 -16c-6.66699 0 -12 2.33301 -16 7l-30 37l-30 -37c-4 -4.66699 -9.33301 -7 -16 -7c-11.333 0 -17.333 5.33301 -18 16c0 5.33301 1.66699 9.66602 5 12.999z" />
    <glyph glyph-name="y" unicode="y" horiz-adv-x="123" 
d="M42 11l-40.999 101c-0.666992 2.66699 -1 6 -1 10c1.33301 9.33301 7 14.666 17 15.999c9.33301 0 15.333 -4.33301 18 -13l26 -70l27 70c3.33301 8.66699 9.33301 13 18 13c10.667 -1.33301 16.667 -6.66602 18 -15.999c0 -4 -0.666992 -7.33301 -2 -10l-62 -151
c-4 -10 -9.66699 -15 -17 -15c-12 0.666992 -18.333 6 -19 16c0 2 0.333008 5 1 9c-0.666992 -2.66699 -0.333984 -2 0.999023 2z" />
    <glyph glyph-name="z" unicode="z" horiz-adv-x="123" 
d="M6 23l58 81.001h-43c-10 0.666992 -15.333 6 -16 16c0.666992 10 6 15.333 16 16h84c8 -0.666992 12 -4.33398 12 -11.001c0 -4 -1.33301 -7.66699 -4 -11l-58 -82h49c10 -0.666992 15.333 -6 16 -16c-0.666992 -10 -6 -15.333 -16 -16h-86c-10 0.666992 -15 5 -15 13
c0 2 0.666992 4.33301 2 7c0.666992 1.33301 1 2.33301 1 3z" />
    <glyph glyph-name="braceleft" unicode="{" horiz-adv-x="85" 
d="M22 -4v48c0 12 -4 17.667 -12 17c-7.33301 0 -11 4 -11 12s3.66699 12 11 12c8 -0.666992 12 5 12 17v50c0 22 11.333 33 34 33h16c7.33301 0.666992 11 -3 11 -11s-3.66699 -12 -11 -12h-6c-8 0 -12 -5 -12 -15v-48c0 -16 -9 -24.667 -27 -26c18 -1.33301 27 -10 27 -26
v-47c0 -10 4 -14.667 12 -14h6c7.33301 0 11 -4 11 -12s-3.66699 -11.667 -11 -11h-16c-22.667 0 -34 11 -34 33z" />
    <glyph glyph-name="bar" unicode="|" horiz-adv-x="56" 
d="M44 182v-170c0 -8.66699 -5.33301 -13 -16 -13c-10 0 -15 4.33301 -15 13v170c0.666992 9.33301 5.66699 14.333 15 15c10 -0.666992 15.333 -5.66699 16 -15z" />
    <glyph glyph-name="braceright" unicode="}" horiz-adv-x="85" 
d="M63 152v-50c0 -12 4.33301 -17.667 13 -17c7.33301 -0.666992 11.333 -4.66699 12 -12c-0.666992 -7.33301 -4.66699 -11.333 -12 -12c-8.66699 0.666992 -13 -5 -13 -17v-48c0 -22 -11.333 -33 -34 -33h-16c-7.33301 0 -11 3.66699 -11 11s3.66699 11.333 11 12h7
c7.33301 -0.666992 11 4 11 14v47c0 16 9.33301 24.667 28 26c-18.667 1.33301 -28 10 -28 26v48c0 10 -3.66699 15 -11 15h-7c-7.33301 0.666992 -11 4.66699 -11 12s3.66699 11 11 11h16c22.667 0 34 -11 34 -33z" />
    <glyph glyph-name="asciitilde" unicode="~" horiz-adv-x="153" 
d="M104 71c4.66699 0 9.99902 3.00098 15.999 9.00098c4.66699 4.66699 8.66699 7 12 7c7.33301 0 11 -4.33301 11 -13c-2.66699 -20.667 -15.667 -31.667 -39 -33c-6.66699 0 -17.334 3.33301 -32.001 10c-10.667 4.66699 -18 7 -22 7c-5.33301 0 -10.666 -3 -15.999 -9
c-4.66699 -4.66699 -8.66699 -7 -12 -7c-7.33301 0 -11.333 4.33301 -12 13c2.66699 21.333 15.667 32.666 39 33.999c6.66699 0 17.334 -3.33301 32.001 -10c11.333 -5.33301 19 -8 23 -8z" />
    <glyph glyph-name="uni4E2A" unicode="&#x4e2a;" horiz-adv-x="256" 
d="M148 189c-0.666992 0 -1.00098 -0.332031 -1.00098 -0.999023c11.333 -10.667 31.333 -26.667 60 -48c16 -12.667 28.333 -18.334 37 -17.001c2.66699 0.666992 4.66699 0.333984 6 -0.999023s1.33301 -3.33301 0 -6c-3.33301 -9.33301 -10.333 -19.333 -21 -30
c-2 -2 -4 -2 -6 0c-8.66699 8.66699 -18.667 16.334 -30 23.001c-12 8 -25.333 19.667 -40 35l-25 22c-4.66699 -6 -9.66699 -12 -15 -18c-16 -18.667 -35 -36.334 -57 -53.001c-12 -8.66699 -20 -16 -24 -22c-2.66699 -2.66699 -4.66699 -3 -6 -1
c-2 5.33301 -4.66699 10.666 -8 15.999c-3.33301 6 -5.66602 13.667 -6.99902 23c-0.666992 1.33301 -0.666992 2.33301 0 3s1.66699 0.666992 3 0c6 -5.33301 17.333 -1 34 13c38 34.667 61 63 69 85c0.666992 4 2.66699 5 6 3c5.33301 -0.666992 13 -4 23 -10
c5.33301 -4 6 -9.33301 2 -16zM147.999 116.001c-2.66699 -18 -3.99902 -45.666 -3.99902 -82.999c0.666992 -28.667 -3 -50 -11 -64c-1.33301 -4 -4 -4.66699 -8 -2c-10.667 13.333 -17.334 23.666 -20.001 30.999c-1.33301 2.66699 -1 4.33398 1 5.00098
c4 2 6.33301 11.333 7 28c2 50.667 1.66699 81 -1 91c-1.33301 6 0 8.33301 4 7c6 -1.33301 13.333 -2 22 -2c6.66699 -0.666992 10 -4.33398 10 -11.001z" />
    <glyph glyph-name="uni4EF6" unicode="&#x4ef6;" horiz-adv-x="256" 
d="M232 154c-0.666992 -8 -1.99609 -16.333 -3.99609 -25c-0.666992 -3.33301 -2.33398 -4.33301 -5.00098 -3c-8 2 -16.333 3 -25 3h-13v-43c11.333 0.666992 23.333 1 36 1c12.667 -0.666992 19.667 0.333008 21 3c2 2 2.66699 1.33301 2 -2
c0 -16.667 -1.33301 -28 -4 -34c-1.33301 -3.33301 -2.66602 -4.33301 -3.99902 -3c-5.33301 4 -16.666 6 -33.999 6c-2.66699 0 -6 0.333008 -10 1h-8c0 -12 -0.333008 -24.667 -1 -38c0 -17.333 -3.66699 -33.333 -11 -48c-2 -4 -4.33301 -4.33301 -7 -1l-15 26
c-2 2.66699 -3.33301 4.66699 -4 6c-2 4 -1.33301 6.66699 2 8h1c1.33301 0.666992 2 2.66699 2 6c0 10 0.666992 20.333 2 31v3c0.666992 2.66699 1 4.66699 1 6c-14.667 0 -27.334 -1.33301 -38.001 -4c-10.667 -1.33301 -15.667 -3.66602 -15 -6.99902
c-0.666992 -2 -1.66699 -3 -3 -3c-0.666992 0 -1.66699 1 -3 3c-2 9.33301 -4.33301 19.666 -7 30.999c-0.666992 3.33301 1.33301 5 6 5c6.66699 -0.666992 15 -0.666992 25 0c5.33301 0.666992 13.333 1.33398 24 2.00098c5.33301 0.666992 9.33301 1 12 1v20
c0.666992 10.667 1 18.667 1 24c-2 0 -5 -0.333008 -9 -1c-4 0 -7 -0.333008 -9 -1c-1.33301 0 -3 -0.333008 -5 -1h-3c-0.666992 -0.666992 -1.66699 -2.33398 -3 -5.00098c-2 -2 -3.33301 -3.66699 -4 -5c-0.666992 -2 -2 -4.66699 -4 -8
c-4 -7.33301 -6.66699 -12.666 -8 -15.999l-1 -2c-0.666992 0 -1.66699 0.666992 -3 2c-2 3.33301 -5.33301 7 -10 11c-2 2 -4.66699 7.66699 -8 17c0 -0.666992 -0.333008 0.333008 -1 3c-0.666992 2 -0.333984 2.66699 0.999023 2
c5.33301 -2.66699 11.666 3.66602 18.999 18.999c3.33301 5.33301 6.33301 12.333 9 21c0.666992 2 1 3.33301 1 4c2 6.66699 2 12 0 16v1c-1.33301 1.33301 -1 2 1 2c16.667 0 27 -2 31 -6c1.33301 -4 1.66602 -7 0.999023 -9c-2.66699 -4 -5.66699 -9.66699 -9 -17
c2 0 4.66699 0.333008 8 1h6v10c0 24 -0.333008 37.667 -1 41c-0.666992 1.33301 -0.666992 2 0 2c0 0.666992 0.666992 1 2 1c6.66699 -0.666992 14 -0.666992 22 0c8 -2 12 -6 12 -12c-2.66699 -8 -4.33398 -21.667 -5.00098 -41h18c13.333 -1.33301 21.333 -1 24 1
c2 0.666992 3.33301 -1 4 -5zM83.0039 132c-1.33301 -10 -2.33105 -21.333 -2.99805 -34c-0.666992 -10.667 -1 -30.334 -1 -59.001v-14c0.666992 -13.333 0 -24 -2 -32c-0.666992 -9.33301 -3.66699 -17.666 -9 -24.999c-0.666992 -1.33301 -1.33398 -2 -2.00098 -2
c-1.33301 0 -2.33301 1 -3 3c-1.33301 2 -3.33301 5.33301 -6 10c-2 3.33301 -3.66699 6 -5 8l-1 1c-1.33301 2 -3.66602 6 -6.99902 12c-0.666992 4 0 6.33301 2 7s2.66699 3 2 7c0 8 1 16 3 24c0.666992 0.666992 1 20 1 58v22
c-0.666992 -0.666992 -1.66699 -1.33398 -3 -2.00098c-4 -3.33301 -8.33301 -7.33301 -13 -12c-4.66699 -2.66699 -8.33398 -7 -11.001 -13l-2 -2c-0.666992 0 -1.33398 0.666992 -2.00098 2c-2.66699 4 -5.66699 9.33301 -9 16c-2 2.66699 -3.33301 5 -4 7
c-0.666992 1.33301 -1 7 -1 17c0.666992 2.66699 2 3.33398 4 2.00098c2.66699 -3.33301 6 -3.33301 10 0c31.333 22.667 54 43.667 68 63c2.66699 2 5.66699 1 9 -3c0 -0.666992 0.666992 -2.33398 2 -5.00098c2 -2.66699 3.33301 -5 4 -7c2 -4.66699 1.66699 -9 -1 -13
l-26 -26c4 -3.33301 6 -6.66602 6 -9.99902z" />
    <glyph glyph-name="uni5143" unicode="&#x5143;" horiz-adv-x="256" 
d="M233 125c0.666992 -11.333 -1.66504 -23.3311 -6.99805 -35.998c-0.666992 -1.33301 -1.33398 -2 -2.00098 -2c-0.666992 -0.666992 -1.33398 -0.333984 -2.00098 0.999023c-2.66699 3.33301 -20.334 5 -53.001 5h-1c-5.33301 -23.333 -6.66602 -45.333 -3.99902 -66
c0.666992 -2 1.66699 -3 3 -3c12 -2.66699 25.667 -4.66699 41 -6c12 -0.666992 22.333 2.33301 31 9c2 2.66699 3.66699 1.66699 5 -3c1.33301 -4 0.666016 -9.33301 -2.00098 -16c-4 -6.66699 -8.33301 -16 -13 -28c-1.33301 -2.66699 -3.33301 -3 -6 -1
c-1.33301 2 -5 3 -11 3c-32.667 4.66699 -52.334 7 -59.001 7c-2 0 -4.33301 -0.333008 -7 -1h-2c-2.66699 -2.66699 -4.66699 -2.66699 -6 0c-6.66699 24 -9.66699 41 -9 51c2 18 3.66699 35.667 5 53h-14c1.33301 -2.66699 1 -5.66699 -1 -9
c-14 -39.333 -39.667 -71.666 -77 -96.999l-2 -2c-3.33301 -3.33301 -5.33301 -6 -6 -8c-2.66699 -3.33301 -4.66699 -3.33301 -6 0c-0.666992 1.33301 -1.33398 3 -2.00098 5c-1.33301 3.33301 -2.66602 6 -3.99902 8c-2.66699 6 -4.66699 13 -6 21
c0 3.33301 1.33301 4.33301 4 3c2 -0.666992 4.33301 -0.333984 7 0.999023c-2 -1.33301 -1.66699 -1.33301 1 0c28.667 17.333 48 42.333 58 75c-15.333 -1.33301 -28.666 -2.66602 -39.999 -3.99902c-9.33301 -0.666992 -13.666 -3 -12.999 -7
c0 -1.33301 -0.333008 -2.33301 -1 -3c-1.33301 0 -2.33301 0.666992 -3 2c-4 9.33301 -6.66699 21.666 -8 36.999c-0.666992 3.33301 0.666016 5 3.99902 5h2c6.66699 -0.666992 20.667 -0.333984 42 0.999023c6.66699 0.666992 12 1 16 1c12.667 1.33301 26.667 2 42 2
c12.667 0.666992 35.334 1 68.001 1c20.667 0 32 1.33301 34 4c1.33301 0.666992 2.33301 1 3 1c0.666992 -0.666992 1 -2 1 -4zM215.001 193.002c0 -2 -0.335938 -5.33105 -1.00293 -9.99805c-1.33301 -7.33301 -2.33301 -13.333 -3 -18
c-0.666992 -3.33301 -2.66699 -4 -6 -2c-5.33301 2 -18.666 3 -39.999 3c-27.333 0 -60.666 -1.33301 -99.999 -4c-6.66699 -0.666992 -10 -3 -10 -7c-0.666992 -2 -1.66699 -3 -3 -3c-1.33301 0.666992 -2 2 -2 4c-2.66699 10 -4 20.333 -4 31
c-1.33301 4.66699 0.333984 7 5.00098 7c9.33301 0 23.333 0.333008 42 1c35.333 2 61.333 2.66699 78 2c18 -0.666992 30.667 -0.333984 38 0.999023c4.66699 1.33301 6.66699 -0.333984 6 -5.00098z" />
    <glyph glyph-name="uni5151" unicode="&#x5151;" horiz-adv-x="256" 
d="M220 145c0 -6 -1.3291 -11.333 -3.99609 -16c-1.33301 -3.33301 -3 -10.333 -5 -21c-0.666992 -6.66699 -1.33398 -11 -2.00098 -13c-3.33301 -12 -7.33301 -21 -12 -27c-4.66699 -5.33301 -9 -6 -13 -2c-2.66699 3.33301 -11.334 4.66602 -26.001 3.99902h-4
c-20.667 0.666992 -40 0 -58 -2c1.33301 0 3.33301 -0.333008 6 -1c2.66699 0 4.66699 -0.333008 6 -1c9.33301 -2.66699 11.666 -9 6.99902 -19l-4 -8l-5 -10c-12.667 -19.333 -34 -39.333 -64 -60c-3.33301 -3.33301 -6 -3 -8 1c-6 10.667 -10.333 21.334 -13 32.001
c-0.666992 2 -0.666992 3 0 3c0.666992 0.666992 2 0.333984 4 -0.999023c2 -0.666992 5 -0.333984 9 0.999023c-3.33301 -1.33301 -3 -1.33301 1 0c30.667 16 48 36.667 52 62h-5c-10 -1.33301 -15 -4.33301 -15 -9c-0.666992 -1.33301 -1.33398 -2 -2.00098 -2
s-1.33398 0.666992 -2.00098 2c-4.66699 10 -7.66699 21 -9 33v6c-2 22.667 -3.66699 38.334 -5 47.001c-1.33301 5.33301 0.666992 7.66602 6 6.99902c5.33301 -1.33301 13 -1 23 1c7.33301 1.33301 26 2.66602 56 3.99902h4c0 2 0.666992 3.66699 2 5
c0.666992 1.33301 2.33398 4 5.00098 8l20 34c1.33301 3.33301 2 7 2 11c0.666992 3.33301 3 4.33301 7 3c12.667 -5.33301 21.667 -11 27 -17c4 -4 3 -8.33301 -3 -13c-10.667 -8 -21 -18.333 -31 -31h11c17.333 -1.33301 29.666 -1.66602 36.999 -0.999023
c4.66699 1.33301 6.33398 -2 5.00098 -10zM231.004 16c3.33301 2.66699 6.00293 3.66602 8.00293 2.99902c2 -1.33301 2.66699 -4 2 -8c-1.33301 -12 -5 -23.667 -11 -35c-0.666992 -2 -1.33398 -3.33301 -2.00098 -4c-0.666992 0 -1.66699 0.666992 -3 2
c-0.666992 0.666992 -2 1 -4 1c-2.66699 0.666992 -4.33398 1 -5.00098 1c-18 0.666992 -35.667 2 -53 4c-4.66699 0 -7.66699 -0.333008 -9 -1h-1c-2 -1.33301 -4 -0.666016 -6 2.00098c-8.66699 14 -11 33.667 -7 59v11c0.666992 5.33301 1 9.33301 1 12
c-0.666992 3.33301 -0.666992 5.33301 0 6s2.66699 0.666992 6 0c7.33301 0 13.666 -1 18.999 -3c8 -1.33301 10.333 -6.33301 7 -15c-4.66699 -12.667 -6 -24.667 -4 -36c-0.666992 -3.33301 2.33301 -5.33301 9 -6c4 0 11.333 -0.333008 22 -1h9c10 0 17.333 2.66699 22 8
zM178.007 125.999c-38.667 1.33301 -68.6689 0.668945 -90.002 -1.99805c-2 0 -3 -0.333008 -3 -1c-0.666992 -0.666992 -0.666992 -2 0 -4v-18c0.666992 -4 2 -6 4 -6c20.667 2 49.334 3 86.001 3c2.66699 0 4.33398 1.33301 5.00098 4
c0 1.33301 0.333008 4.66602 1 9.99902s1 8.66602 1 9.99902c0.666992 2 0.666992 3 0 3c0 0.666992 -1.33301 1 -4 1zM112.005 169.002c3.33301 -8 2.00195 -12.001 -3.99805 -12.001s-10.333 0.333008 -13 1c-4.66699 0 -8.33398 2.33301 -11.001 7
c-3.33301 6 -6.33301 12.667 -9 20c-0.666992 0.666992 -1.33398 1.66699 -2.00098 3c-2 4.66699 -4.33301 8.33398 -7 11.001c-1.33301 1.33301 -2 2.66602 -2 3.99902c0.666992 1.33301 2 2 4 2c4 0.666992 11.667 1 23 1c7.33301 0.666992 11.333 -1.66602 12 -6.99902
c1.33301 -6 3.66602 -14 6.99902 -24c0.666992 -2.66699 1.33398 -4.66699 2.00098 -6z" />
    <glyph glyph-name="uni5957" unicode="&#x5957;" horiz-adv-x="256" 
d="M139 196c-0.666992 -0.666992 -1.33789 -1.99316 -2.00488 -3.99316c-1.33301 -2 -2.33301 -3.66699 -3 -5c6 0.666992 15.667 0.666992 29 0h17c8 0 16.667 0.333008 26 1h9c2.66699 0.666992 4 0 4 -2c0 -7.33301 -1.33301 -15 -4 -23
c-0.666992 -3.33301 -2.33398 -4.66602 -5.00098 -3.99902c-8.66699 2.66699 -24.667 4 -48 4h-4c8 -4 16.333 -9.66699 25 -17c20.667 -14.667 38.667 -21.334 54 -20.001c2.66699 0.666992 3.66699 -0.333008 3 -3c-2.66699 -12 -8.33398 -21.667 -17.001 -29
c-2 -2 -4.33301 -2 -7 0c-10 8.66699 -19.333 14.667 -28 18l-2 1c-0.666992 -2 -2 -2.33301 -4 -1c-3.33301 2 -14 3 -32 3c-20.667 0 -36.667 -0.666992 -48 -2c0 -2 -0.333008 -4.66699 -1 -8c7.33301 0.666992 17.333 1 30 1c28 0 43.667 0.333008 47 1
c2.66699 0.666992 4.33398 -0.333008 5.00098 -3c-0.666992 -6 -2 -11 -4 -15c0 -2.66699 -1.33301 -3.33398 -4 -2.00098c-13.333 1.33301 -27.666 1.33301 -42.999 0c-1.33301 0 -3.66602 -0.333008 -6.99902 -1c-8.66699 -0.666992 -17 -1 -25 -1v-7
c2 0 4.66699 0.333008 8 1h7c4 0.666992 11.333 1 22 1c14.667 0 28 0.333008 40 1c3.33301 -0.666992 4.66602 -2 3.99902 -4c0 -0.666992 -0.333008 -2 -1 -4c0 -1.33301 -1 -5.33301 -3 -12c0 -0.666992 -0.333008 -1.33398 -1 -2.00098l-2 1
c-12 2 -34.667 1.66699 -68 -1h-7l-1 -8c26 0.666992 51 1 75 1c20.667 -0.666992 35.334 0.333008 44.001 3c6.66699 2 9.66699 0.666992 9 -4c0 -9.33301 -1.33301 -17.333 -4 -24c-1.33301 -2.66699 -3.66602 -3.33398 -6.99902 -2.00098c-8 2.66699 -18 4 -30 4
c-6 0.666992 -25 0.333984 -57 -0.999023c1.33301 0 0 0 -4 0c-2 -2 -5 -4.66699 -9 -8c-3.33301 -2 -9 -7 -17 -15c8 0.666992 10.667 1 8 1c24.667 2 41.334 3.66699 50.001 5c-1.33301 3.33301 -2 7 -2 11c-0.666992 5.33301 2 6.66602 8 3.99902
c12.667 -14.667 28 -23.334 46 -26.001c2.66699 0 3.33398 -1.33301 2.00098 -4v-1c-1.33301 -1.33301 -1.66602 -3.33301 -0.999023 -6c0.666992 -2 0 -4.33301 -2 -7c-0.666992 -2 -1.66699 -4.33301 -3 -7l-3 -6c-1.33301 -2.66699 -3 -3.33398 -5 -2.00098
c0 -0.666992 -0.333008 -0.666992 -1 0c-10.667 6.66699 -20 15 -28 25c-38.667 -4 -68.334 -8.33301 -89.001 -13c-4.66699 -0.666992 -7 -3 -7 -7c0 -2.66699 -2 -3 -6 -1c-10 11.333 -14.667 21 -14 29c0 2 1.66699 3 5 3h4l2 1c2 1.33301 3.66699 2.66602 5 3.99902
s3.66602 4 6.99902 8c4.66699 3.33301 8 6.33301 10 9c-10.667 -0.666992 -20.667 -1.66699 -30 -3c-1.33301 0 -2.66602 -0.333008 -3.99902 -1c-7.33301 -0.666992 -10.666 -2 -9.99902 -4c-0.666992 -2 -1.33398 -3.33301 -2.00098 -4c-1.33301 0 -2.33301 1 -3 3
c-3.33301 4.66699 -6.33301 13.334 -9 26.001c0 2.66699 1.33301 4 4 4c14 1.33301 27.333 2.33301 40 3c2 19.333 2.33301 40.333 1 63l-1 -1c-0.666992 0 -1.33398 -0.333008 -2.00098 -1c-20 -14.667 -31 -23.334 -33 -26.001c-1.33301 -2 -3 -2.33301 -5 -1
c-5.33301 6.66699 -8.33301 14.667 -9 24c-0.666992 3.33301 -1 6 -1 8c-0.666992 2 -0.666992 3 0 3c0.666992 0.666992 2 0.333984 4 -0.999023c4.66699 -2.66699 11.667 -0.333984 21 6.99902c18 12 31.667 24 41 36c-6.66699 -1.33301 -15 -2 -25 -2
c-12 -0.666992 -17.333 -3 -16 -7c-1.33301 -2.66699 -3 -2.66699 -5 0c-1.33301 2.66699 -2.66602 7 -3.99902 13c-0.666992 0.666992 -1 1.33398 -1 2.00098c0 5.33301 -0.666992 9.33301 -2 12c-1.33301 2 -1.66602 3.33301 -0.999023 4s2.33398 1 5.00098 1
c4 -1.33301 15.667 -1 35 1c9.33301 1.33301 19.333 2 30 2c4 8.66699 7.33301 18 10 28c0 3.33301 2 4 6 2c1.33301 -0.666992 3 -1.33398 5 -2.00098c4 -2.66699 8 -4.33398 12 -5.00098c5.33301 -2 6.66602 -6.33301 3.99902 -13zM132.996 163.007l-12.998 -0.00195312
c-6 -9.33301 -13.333 -18.666 -22 -27.999h37c8 0.666992 15 1 21 1l-8 8c-4.66699 4 -8 4.66699 -10 2c-0.666992 -2 -1.33398 -3 -2.00098 -3s-1.33398 1 -2.00098 3c-2 6.66699 -2.33301 11.334 -1 14.001v3z" />
    <glyph glyph-name="uni5E45" unicode="&#x5e45;" horiz-adv-x="256" 
d="M238 81c-1.33301 -10 -3.00195 -18.999 -5.00195 -26.999c-2 -6 -4.33301 -19.333 -7 -40c-1.33301 -12 -3.66602 -21.333 -6.99902 -28c-3.33301 -4 -6.66602 -5 -9.99902 -3c-3.33301 1.33301 -11 2 -23 2c-3.33301 0 -8.66602 -0.333008 -15.999 -1h-16
c-17.333 -0.666992 -25.666 -4 -24.999 -10c-0.666992 -1.33301 -1.33398 -1.66602 -2.00098 -0.999023c-0.666992 0 -1.33398 0.666992 -2.00098 2c-7.33301 17.333 -11 30.333 -11 39c0 31.333 -1 52.666 -3 63.999c0 5.33301 1.33301 7.66602 4 6.99902
c4 -1.33301 12.333 -1 25 1c28 2.66699 54 3 78 1h16c2.66699 1.33301 4 -0.666992 4 -6zM81.998 182.001c0 -3.33301 -0.329102 -8.99414 -0.996094 -16.9941c-0.666992 -7.33301 -1.33398 -13 -2.00098 -17h6h25c4 0.666992 5.33301 -1.33301 4 -6c0 -6 -1 -13 -3 -21
c-2 -10 -3.66699 -22 -5 -36c-0.666992 -17.333 -3.66699 -32 -9 -44c-2 -2.66699 -3.66699 -3.33398 -5 -2.00098c-8.66699 11.333 -14 20 -16 26v-20c-0.666992 -9.33301 -1 -16.333 -1 -21c-0.666992 -28.667 -4 -46.334 -10 -53.001
c-1.33301 -2 -2.66602 -3 -3.99902 -3c-0.666992 0 -1.33398 1 -2.00098 3c-2.66699 6 -5.33398 11 -8.00098 15c-4 4.66699 -6.33301 9.66699 -7 15c0 2 0.333008 3 1 3c2 -1.33301 3 0 3 4c0 1.33301 0.333008 3.66602 1 6.99902v6c3.33301 26 5 52.667 5 80v21
c-3.33301 -0.666992 -6 -1 -8 -1v-2c-0.666992 -0.666992 -1 -1.33398 -1 -2.00098c-0.666992 -7.33301 -1 -21 -1 -41c0.666992 -15.333 -2 -29 -8 -41c-1.33301 -2 -3 -2 -5 0c-1.33301 3.33301 -4.33301 8.66602 -9 15.999l-4 8
c-0.666992 2.66699 -0.333984 4.66699 0.999023 6c2 -2 3 0 3 6v38c0 16 -0.666992 27.667 -2 35c0 2 0.666992 2.66699 2 2h14c2 0 5 0.333008 9 1h9c0 5.33301 -0.333008 12.666 -1 21.999c-0.666992 14 -1 23.333 -1 28c-0.666992 1.33301 -0.666992 2.33301 0 3
c0 0.666992 0.666992 0.666992 2 0c4 -0.666992 8.33301 -0.666992 13 0c6 1.33301 10.667 -1 14 -7v-1c1.33301 -2.66699 1.66602 -6 0.999023 -10zM228.002 153.007c-4.66699 -13.333 -7.66699 -25.333 -9 -36c-1.33301 -8 -3 -14 -5 -18
c-3.33301 -4 -6.66602 -5.33301 -9.99902 -4c-0.666992 2 -7.66699 2.33301 -21 1c-4 0 -9.66699 -0.333008 -17 -1c-7.33301 0 -12.666 -0.333008 -15.999 -1c-9.33301 -0.666992 -14.666 -2 -15.999 -4c-0.666992 -1.33301 -1.33398 -2 -2.00098 -2s-1 0.666992 -1 2
c-4 8.66699 -6.33301 18 -7 28c0 10 -0.333008 17.333 -1 22v8c-0.666992 4 -1 6.66699 -1 8c0.666992 2 2 2.66699 4 2c1.33301 -0.666992 5.33301 -0.666992 12 0c1.33301 0.666992 2.66602 1 3.99902 1c22.667 2.66699 43 3 61 1c8 -0.666992 15 -0.666992 21 0
c3.33301 0 4.66602 -2.33301 3.99902 -7zM246.002 196.007c0 -11.333 -2 -21.999 -6 -31.999c-2 -3.33301 -3.66699 -4 -5 -2c0.666992 3.33301 -9.33301 5.33301 -30 6c-14 0.666992 -35.667 -0.333008 -65 -3c-13.333 -0.666992 -20.666 -2.66699 -21.999 -6
c-0.666992 -2 -1.66699 -2.33301 -3 -1c-6.66699 13.333 -9.33398 23.666 -8.00098 30.999c0 3.33301 1.66699 4.33301 5 3c6.66699 -1.33301 18.667 -0.666016 36 2.00098c20 2.66699 41 3 63 1c16.667 -0.666992 27 0.666016 31 3.99902c2.66699 1.33301 4 0.333008 4 -3z
M192.002 136.008c-12 0.666992 -24.999 0.333008 -38.999 -1c-2 0.666992 -3 0 -3 -2c0 -3.33301 0.333008 -7 1 -11c-0.666992 -3.33301 0.666016 -4.66602 3.99902 -3.99902h3c11.333 1.33301 20.666 1.66602 27.999 0.999023c4.66699 0 7.33398 1.33301 8.00098 4
s1 6 1 10c0.666992 1.33301 0.666992 2.33301 0 3h-3zM82.0029 122.007h-4c-0.666992 -5.33301 -1 -10.666 -1 -15.999c0 -12 -0.333008 -23.667 -1 -35h1c2.66699 -2.66699 4.66699 0.666016 6 9.99902c2 12.667 3 25 3 37c0 2.66699 -1.33301 4 -4 4zM202.003 57.0068
c0 3.33301 -1 5.00098 -3 5.00098h-14v-6c-0.666992 -4 -1 -7 -1 -9h6h12c0.666992 1.33301 0.666992 3.66602 0 6.99902v3zM145.003 60.0078c-3.33301 0.666992 -5 -1 -5 -5v-10h1c4.66699 0.666992 10 1 16 1c0 2 0.333008 5 1 9v6c-4.66699 0 -9 -0.333008 -13 -1z
M148.003 7.00781h10c-0.666992 4 -1 9.33301 -1 16h-5c-2.66699 -0.666992 -4.66699 -1 -6 -1h-6c0 -1.33301 0.333008 -3.33301 1 -6v-5c0 -2.66699 2.33301 -4 7 -4zM200.003 14.0078v4c0.666992 2.66699 1 4.66699 1 6h-11h-7v-15h11c4 1.33301 6 3 6 5z" />
    <glyph glyph-name="uni5F20" unicode="&#x5f20;" horiz-adv-x="256" 
d="M218 188l2.99805 -6.00293c0.666992 -2 1.33398 -3.33301 2.00098 -4c3.33301 -2.66699 6 -7.66699 8 -15c1.33301 -4.66699 0.333008 -7.33398 -3 -8.00098c-2 0 -6.33301 -1.33301 -13 -4c-4.66699 -2.66699 -11 -6 -19 -10c-8.66699 -4 -16.667 -8 -24 -12
c-2.66699 -2 -5 -3 -7 -3c-0.666992 -2.66699 -1 -5.66699 -1 -9c4.66699 0.666992 12.667 0.666992 24 0h18c18 0 29 1.33301 33 4c1.33301 0.666992 2.33301 0.666992 3 0c0.666992 0 0.666992 -0.666992 0 -2c-0.666992 -3.33301 -1 -7 -1 -11
c0.666992 -4 -1.33301 -11.667 -6 -23c-0.666992 -1.33301 -1.33398 -2 -2.00098 -2c0 -0.666992 -0.666992 -0.333984 -2 0.999023c-3.33301 3.33301 -12.666 5 -27.999 5h-40c-0.666992 -11.333 -1.33398 -28.666 -2.00098 -51.999c-0.666992 -10 -1 -18 -1 -24
c15.333 2 24.666 4 27.999 6c2 0.666992 3.33301 1 4 1s1 -1 1 -3v-14c-1.33301 -4.66699 -5 -8.33398 -11 -11.001c-27.333 -10.667 -41.333 -18.667 -42 -24c-0.666992 -1.33301 -1.33398 -2 -2.00098 -2c-0.666992 0.666992 -1.33398 1.66699 -2.00098 3
c-6 12 -10 22 -12 30c-0.666992 2.66699 0.666016 4.33398 3.99902 5.00098c2 1.33301 3 6.33301 3 15c2.66699 24 4 46.667 4 68c-4.66699 -0.666992 -9.66699 -1.66699 -15 -3c-5.33301 -0.666992 -7.66602 -2.66699 -6.99902 -6
c0.666992 -1.33301 0.333984 -2 -0.999023 -2c-0.666992 0 -1.33398 0.666992 -2.00098 2c-4 10.667 -6 18.334 -6 23.001v2c-1.33301 -1.33301 -2.66602 -1.66602 -3.99902 -0.999023c-5.33301 0.666992 -12.666 0.666992 -21.999 0c-3.33301 -0.666992 -6 -1 -8 -1
c-2 -0.666992 -4.33301 -1 -7 -1c0 -0.666992 -0.333008 -2 -1 -4c-2 -7.33301 -3.66699 -12 -5 -14c-0.666992 -4 0.333008 -5.66699 3 -5c2.66699 0 6.33398 0.333008 11.001 1c4.66699 0 8.33398 0.333008 11.001 1c4.66699 0 10 0.666992 16 2
c6 0.666992 8.66699 -2.33301 8 -9c-6 -38 -13 -65.333 -21 -82c-1.33301 -2.66699 -3 -7.66699 -5 -15c-0.666992 -1.33301 -1 -2.66602 -1 -3.99902c-1.33301 -4 -3.66602 -4.66699 -6.99902 -2c-6 6.66699 -11 17.667 -15 33c-2 5.33301 -0.666992 7.66602 4 6.99902
c2 -0.666992 3.66699 1 5 5c0 0.666992 0.333008 1.33398 1 2.00098c2.66699 10.667 4.66699 20 6 28c0.666992 2.66699 0.666992 4.33398 0 5.00098s-2.66699 1 -6 1c-11.333 0 -19 -1.66699 -23 -5c-1.33301 -1.33301 -2.33301 -2 -3 -2c-1.33301 0 -2.33301 1 -3 3
c-9.33301 14.667 -12 26 -8 34c2.66699 8 4 14 4 18c-3.33301 0.666992 -4.66602 -0.333008 -3.99902 -3c0 -0.666992 -0.333008 -1 -1 -1s-1.33398 0.333008 -2.00098 1c-4 12 -5.33301 23 -4 33c0 1.33301 0.333008 2.33301 1 3c1.33301 0 2.33301 -0.333008 3 -1
c2.66699 -2 9 -2.33301 19 -1c11.333 2 21.666 3 30.999 3h5c1.33301 6.66699 2 12 2 16c0.666992 3.33301 -1 5 -5 5c-4 0.666992 -8.66699 0.333984 -14 -0.999023c-4 -1.33301 -8.33301 -1.66602 -13 -0.999023c-5.33301 0 -8 -2 -8 -6
c0 -1.33301 -0.666992 -2.33301 -2 -3c-0.666992 0 -1.33398 0.666992 -2.00098 2c-4.66699 11.333 -7 23 -7 35c-0.666992 2.66699 1 4 5 4c8.66699 0 15 0.333008 19 1c11.333 2 22.666 2.33301 33.999 1c10 -0.666992 17.667 -0.666992 23 0
c4 0.666992 5.66699 -1.33301 5 -6c0 -10 -1 -16 -3 -18c-3.33301 -4.66699 -5.66602 -14.334 -6.99902 -29.001c-0.666992 -4.66699 -2 -9 -4 -13v-5h1c10 0 20 0.666992 30 2v45c0.666992 16.667 0.333984 31 -0.999023 43v1c-0.666992 2 0.333008 3 3 3
c14 0 23 -0.666992 27 -2c5.33301 -2.66699 7.33301 -7.33398 6 -14.001c-2 -9.33301 -3.66699 -23 -5 -41l22 16l11 8c5.33301 4 9 9 11 15c2.66699 2.66699 5.33398 2 8.00098 -2zM244.998 23.9971c-0.666992 -6 -3.99805 -13.001 -9.99805 -21.001
c-4 -4 -7 -7.66699 -9 -11c-1.33301 -2.66699 -3 -2.66699 -5 0c-2 4 -7 9.66699 -15 17c-11.333 12 -21.333 24.667 -30 38c-4 5.33301 -6.33301 6.33301 -7 3c-0.666992 -2 -1.33398 -1.66699 -2.00098 1c-0.666992 10 -0.666992 17 0 21c1.33301 2.66699 2 5.66699 2 9
c0.666992 4.66699 2.66699 6 6 4c9.33301 -7.33301 19.666 -18 30.999 -32c7.33301 -9.33301 14.333 -16.333 21 -21c5.33301 -4 10.333 -5.33301 15 -4c2 0.666992 3 -0.666016 3 -3.99902z" />
    <glyph glyph-name="uni6362" unicode="&#x6362;" horiz-adv-x="256" 
d="M230 127c-2 -8 -3.65723 -15.332 -4.99023 -21.999c0 -10 -2 -21 -6 -33c13.333 0 21.333 1.33301 24 4c2 0.666992 3 0.666992 3 0c0.666992 0 0.666992 -0.666992 0 -2c-0.666992 -3.33301 -1 -8 -1 -14c0 -5.33301 -1.66699 -12 -5 -20
c-0.666992 -2 -2.33398 -2.33301 -5.00098 -1c-5.33301 4 -17.666 6.33301 -36.999 7h-23l3 -3l1 -1c6.66699 -6 17 -13.667 31 -23c10.667 -7.33301 19 -10.333 25 -9c3.33301 0.666992 5 -0.666016 5 -3.99902c-3.33301 -12 -9.66602 -23.333 -18.999 -34
c-1.33301 -1.33301 -2.33301 -2 -3 -2s-1.33398 0.666992 -2.00098 2c-0.666992 4 -3.66699 7.33301 -9 10c-13.333 8.66699 -28.666 23 -45.999 43c-6 -12 -21 -25.667 -45 -41c-9.33301 -6 -15.333 -11 -18 -15c-1.33301 -2 -3 -1.66699 -5 1
c-2.66699 3.33301 -4.33398 7 -5.00098 11c0 4 -1 8.33301 -3 13c-0.666992 2 -1.33398 4.33301 -2.00098 7c-0.666992 1.33301 -1 2.33301 -1 3c0 1.33301 0.333008 2.33301 1 3c1.33301 0 2.33301 -0.333008 3 -1c1.33301 -2.66699 6.33301 -2 15 2
c22 11.333 35 23.666 39 36.999c-4 0 -9.66699 -0.333008 -17 -1c-8.66699 0 -14.334 -0.333008 -17.001 -1c-6.66699 -0.666992 -10 -3 -10 -7c-0.666992 -2 -1.33398 -3 -2.00098 -3s-1.33398 1 -2.00098 3c0 1.33301 -0.666992 4 -2 8c-1.33301 6 -2.33301 10.667 -3 14
c-1.33301 -0.666992 -3 -1 -5 -1h-10v-22c0.666992 -8 -0.333008 -17.667 -3 -29s-6.33398 -23.666 -11.001 -36.999c-0.666992 -2 -1.66699 -3.33301 -3 -4c-1.33301 0 -2.66602 1 -3.99902 3c-9.33301 12.667 -15.333 25.334 -18 38.001
c-0.666992 1.33301 -0.666992 2.33301 0 3c0 0.666992 0.666992 0.666992 2 0c4.66699 -2 7.66699 4.66699 9 20c0 2.66699 0.333008 6.66699 1 12v11c-2.66699 0 -5.66699 -0.666992 -9 -2c-6.66699 -2.66699 -11 -6 -13 -10c-0.666992 -2 -1.33398 -3.33301 -2.00098 -4
c-0.666992 0 -1.33398 1 -2.00098 3c-4 9.33301 -7 23 -9 41c0 2 0.333008 3.33301 1 4c0.666992 0 1.66699 -0.333008 3 -1c4 -2 8.66699 -2.66699 14 -2c7.33301 1.33301 13.333 2.33301 18 3c0.666992 11.333 1 23.333 1 36h-8c-12 0 -18.333 -3.33301 -19 -10
c-0.666992 -2.66699 -1.33398 -4 -2.00098 -4s-1.33398 1 -2.00098 3c-4 14 -6.33301 26.667 -7 38c0 3.33301 1.33301 4.33301 4 3c1.33301 -2 6.66602 -2 15.999 0c2 0 5 0.333008 9 1c4 0 7 0.333008 9 1v3c0 17.333 -1 28 -3 32c-0.666992 4 0.333008 5.66699 3 5
c7.33301 0 13 0.666992 17 2c2.66699 0 6 -1.33301 10 -4c2.66699 -2.66699 3.66699 -8.33398 3 -17.001c0 -1.33301 -0.333008 -3 -1 -5c-1.33301 -6.66699 -2 -12 -2 -16h3c6 -1.33301 10.667 -1 14 1c3.33301 1.33301 5.33301 0 6 -4v-3
c0.666992 0.666992 1.33398 1 2.00098 1l1 1c18.667 16 33 30.333 43 43c5.33301 8.66699 8.33301 16 9 22c0 2 0.333008 3 1 3s2 -0.333008 4 -1c13.333 -4.66699 20.333 -8.33398 21 -11.001c2 -4 2 -7 0 -9c-0.666992 -0.666992 -1.33398 -1.66699 -2.00098 -3
c-2.66699 -2.66699 -4.33398 -5 -5.00098 -7c16.667 -2.66699 31.667 -4.66699 45 -6c4 0.666992 5.66699 -1 5 -5c0.666992 -6.66699 -1.33301 -11.667 -6 -15c-4 -4 -9.66699 -11.333 -17 -22h12c7.33301 0.666992 13 1 17 1
c3.33301 -0.666992 4.33301 -4.33398 3 -11.001zM91.0098 86.001c-0.666992 -1.33301 -1.00098 -3.66504 -1.00098 -6.99805c-0.666992 -3.33301 -1 -6 -1 -8c2.66699 0 6.33398 0.333008 11.001 1h10c0 2 0.333008 5 1 9c0 16.667 -0.666992 29.667 -2 39
c-3.33301 -3.33301 -5.33301 -6.33301 -6 -9c-0.666992 -1.33301 -1.33398 -2 -2.00098 -2c0 -0.666992 -0.666992 -0.333984 -2 0.999023c-2 3.33301 -3.66699 7.33301 -5 12c-0.666992 -2 -1.66699 -2.66699 -3 -2c-2 1.33301 -5 1.66602 -9 0.999023h-4
c-2.66699 -0.666992 -4.66699 -1 -6 -1v-14c-0.666992 -8 -1 -14 -1 -18c6 1.33301 11 2.33301 15 3c4.66699 0.666992 6.33398 -1 5.00098 -5zM128.009 135.002c14 2 28 2.66699 42 2c4 6 7.33301 11.667 10 17c2 2 2 3.33301 0 4h-1c-8 0 -17 0.333008 -27 1l-15 -15z
M175.009 73.002c6 0 12 -0.333984 18 -1.00098c0 0.666992 -0.333008 2 -1 4c-0.666992 2.66699 -0.333984 4.33398 0.999023 5.00098c2 0 3 2 3 6c0.666992 4 1 10 1 18c1.33301 4.66699 0 6.66699 -4 6h-15v-1c4 -1.33301 5.33301 -4.33301 4 -9
c-0.666992 -2 -1.66699 -6 -3 -12c-1.33301 -6.66699 -2.66602 -12 -3.99902 -16zM135.009 73.001l15 0.000976562c3.33301 13.333 4.33301 25.666 3 36.999h-8c-4 -0.666992 -7 -1 -9 -1v-26c0 -4 -0.333008 -7.33301 -1 -10z" />
    <glyph glyph-name="uni7801" unicode="&#x7801;" horiz-adv-x="256" 
d="M242 97c-0.666992 -2 -1.66504 -6.99707 -2.99805 -14.9971c-1.33301 -7.33301 -2.33301 -13 -3 -17c-4.66699 -27.333 -14 -58.333 -28 -93c-0.666992 -2 -1.66699 -3 -3 -3c-0.666992 -0.666992 -2 0 -4 2c-8.66699 12 -14.334 23.667 -17.001 35
c-0.666992 2 -0.666992 3.33301 0 4s2 0.666992 4 0c3.33301 -1.33301 6.33301 3 9 13c6 19.333 9.33301 35.333 10 48c0.666992 4 -1 6 -5 6c-19.333 0 -34 -0.333008 -44 -1c-12 -0.666992 -18 -3 -18 -7l-2 -2c-0.666992 0 -1.66699 0.666992 -3 2
c-4 6 -7.33301 14.667 -10 26c0 4 0.666992 6.33301 2 7c6 10.667 11.333 32 16 64c-8 -1.33301 -12 -3 -12 -5c0 -2.66699 -0.666992 -4.33398 -2 -5.00098c-1.33301 0 -2.33301 1.33301 -3 4c-2.66699 10 -4.33398 19.333 -5.00098 28
c-0.666992 5.33301 1 7.66602 5 6.99902c18.667 2.66699 38.334 4 59.001 4h45c2.66699 0 4 -1.33301 4 -4c0 -14 -0.666992 -22.333 -2 -25c-2 -4 -4 -9.33301 -6 -16c0 -1.33301 -0.333008 -3 -1 -5c-2 -6.66699 -3.66699 -12 -5 -16
c-0.666992 -2.66699 -1.33398 -6.33398 -2.00098 -11.001c-1.33301 -4 -2.33301 -7.66699 -3 -11l-2 -6h10c2 -0.666992 4.66699 -0.666992 8 0h4c4.66699 0 7 -2.66699 7 -8zM108.002 68.0029c-2 -8 -2.99805 -20.666 -2.99805 -37.999c-1.33301 -12 -3 -21.667 -5 -29
c-3.33301 -2.66699 -6 -3 -8 -1c-1.33301 2.66699 -7 3.66699 -17 3c-18 -0.666992 -25.667 -3.66699 -23 -9c0 -2 -0.333008 -3.33301 -1 -4c-0.666992 0 -1.66699 1 -3 3c-4.66699 2 -7 16.333 -7 43v9c-0.666992 4 -1 7 -1 9c-1.33301 -2.66699 -3 -5.66699 -5 -9
c-6 -12.667 -11.333 -21 -16 -25c-2 -2 -3.33301 -1.66699 -4 1c0 -0.666992 -0.333008 -0.333984 -1 0.999023c-4.66699 9.33301 -7 21.333 -7 36c0 2 0.666992 2.66699 2 2c2.66699 -4 8.33398 1 17.001 15c14.667 22.667 24.334 41.334 29.001 56.001h-3
c-10.667 -2 -16 -5.33301 -16 -10c-0.666992 -1.33301 -1.33398 -2 -2.00098 -2c-1.33301 0 -2.33301 0.666992 -3 2c0 2 -0.666992 4.33301 -2 7c-0.666992 4 -1.33398 7.33301 -2.00098 10c-1.33301 4.66699 -2 12 -2 22c0 2 1 2.33301 3 1c-0.666992 -2 3.33301 -2 12 0
c20.667 1.33301 42 2 64 2c4.66699 0 8.33398 0.333008 11.001 1c2 0.666992 3 0.666992 3 0c0.666992 0 1 -0.666992 1 -2c1.33301 -6.66699 1.66602 -11.334 0.999023 -14.001c0 -1.33301 -0.333008 -2.66602 -1 -3.99902c-0.666992 -2.66699 -1 -6 -1 -10
c0 -1.33301 -0.666992 -2.33301 -2 -3c-0.666992 -0.666992 -1.33398 -0.333984 -2.00098 0.999023c-6 1.33301 -16 1.66602 -30 0.999023c0 -0.666992 -0.333008 -1.66699 -1 -3c-0.666992 -2 -1.66699 -4.33301 -3 -7c-2.66699 -4.66699 -4.66699 -9 -6 -13
c0 -0.666992 -0.666992 -2 -2 -4c-0.666992 -2 -1.33398 -3.66699 -2.00098 -5c6.66699 0.666992 15 0.333984 25 -0.999023c6 -0.666992 10.667 -0.666992 14 0c2 0 3 -0.666992 3 -2c0 -12.667 -1.33301 -22.667 -4 -30zM200.004 56.0039
c0 -5.33301 -0.663086 -11.0059 -1.99609 -17.0059c0 0.666992 0 0.333984 0 -0.999023s-0.333008 -2.66602 -1 -3.99902s-1 -2.66602 -1 -3.99902c-0.666992 -1.33301 -2.33398 -1.66602 -5.00098 -0.999023s-10.334 1 -23.001 1h-4
c-14 -1.33301 -23.667 -2.66602 -29 -3.99902c-12 -1.33301 -17.333 -3.33301 -16 -6c0 -2 -0.666992 -3.33301 -2 -4c-0.666992 0 -1.33398 1 -2.00098 3c-4 9.33301 -5.33301 21 -4 35c0 0.666992 0.333008 1.33398 1 2.00098l2 -1c3.33301 0 9.66602 0.333008 18.999 1
c4 0 9.66699 0.333008 17 1h16c10.667 0 20 0.666992 28 2c4 0 6 -1 6 -3zM194.008 166.998c-8 0.666992 -14.667 1.00195 -20 1.00195c2 -2 2.33301 -4.33301 1 -7l-15 -47c-2.66699 -6.66699 -1 -10 5 -10c5.33301 -0.666992 12.333 -1 21 -1c0 0.666992 -0.333008 2 -1 4
c0.666992 -0.666992 0.333984 -0.333984 -0.999023 0.999023c-0.666992 2.66699 -0.333984 4 0.999023 4c4.66699 10 8.66699 27 12 51c0.666992 3.33301 -0.333008 4.66602 -3 3.99902zM81.0078 73l-13.001 0.000976562c-3.33301 -0.666992 -5 -2.33398 -5 -5.00098
c0 -14.667 0.333008 -25.667 1 -33c-0.666992 -1.33301 0.333008 -2 3 -2c2.66699 0.666992 6.33398 1 11.001 1c2.66699 0 4 1.66699 4 5c1.33301 10 2 20 2 30c0 1.33301 -0.666992 2.33301 -2 3z" />
  </font>
</defs>
</svg>
